<?xml version="1.0" encoding="utf-8"?>
<!-- Generator: Adobe Illustrator 27.7.0, SVG Export Plug-In . SVG Version: 6.00 Build 0)  -->
<svg version="1.1" id="Capa_1" xmlns="http://www.w3.org/2000/svg" xmlns:xlink="http://www.w3.org/1999/xlink" x="0px" y="0px"
	 viewBox="0 0 2656 1695" style="enable-background:new 0 0 2656 1695;" xml:space="preserve">
<style type="text/css">
	.st0{fill:#F2F2F2;}
	.st1{fill:#7DAC76;}
	.st2{fill:#E3EADE;}
	.st3{fill:#B1C6AE;}
	.st4{fill:#98BA8E;}
	.st5{fill:#3C7E5D;}
	.st6{fill:#46926C;}
	.st7{fill:#FFFFFF;}
	.st8{fill:#FBD2A5;}
	.st9{fill:#BFB286;}
	.st10{fill:#CF4D37;}
	.st11{fill:#1B2227;}
	.st12{fill:#E98724;}
	.st13{fill:#EFAC21;}
	.st14{fill:#CE4B32;}
</style>
<rect x="0" y="2.1" class="st0" width="2655.4" height="1691.7"/>
<rect x="1596.1" y="1241.1" class="st1" width="117.5" height="17.5"/>
<path class="st1" d="M1278.2,1309.5c-2.6-2.6-4.1-6-4.1-9.9c0-7.6,6.3-13.9,13.9-13.9h4.8v-0.4h30.7v-87.6h-32.2
	c-6.9,0-12.6-5.6-12.6-12.6c0-3.7,1.7-7,4.3-9.3h-46.3c0,0,0,0,0,0c0.1,0.9,0.2,1.9,0.2,2.8c0.2,2.6,0.2,5.2,0.3,7.7
	c0,0.6,0,1.2,0,1.8c0,5.4-0.4,10.4-1.1,15c-0.1,0.4-0.1,0.7-0.2,1c-0.8,4.6-2,8.9-3.7,12.6c-0.1,0.3-0.2,0.6-0.4,0.9
	c-0.8,1.8-1.8,3.5-2.8,5.1c-0.1,0.2-0.3,0.4-0.5,0.6c-0.9,1.4-2,2.6-3.1,3.8c-0.2,0.3-0.5,0.5-0.7,0.8c0,0-0.1,0.1-0.1,0.1h35.4
	v19.1h-148.6v-9.9l-11.5,0.1c0,0.1,0,0.2,0,0.2c0,18.8-7.7,35.9-20,48.2h149.6c3.8,0,7.3,1.6,9.9,4.1c2.5,2.5,4.1,6,4.1,9.8
	c0,7.7-6.2,13.9-13.9,13.9H851.5l-0.6,1.5c-0.8,1.7-1.8,3.2-3.1,4.6h-80.1c-25.1,0-45.6,20.5-45.6,45.6c0,12.6,5.1,24,13.4,32.2
	c8.2,8.3,19.7,13.4,32.2,13.4H1759c21.5,0,39.7-15.1,44.4-35.3h141.9c14,0,25.4-11.4,25.4-25.4c0-14.1-11.4-25.5-25.4-25.5h-125.5
	c-7.9,0-14.7-4.5-18.1-11.1H1288C1284.2,1313.5,1280.7,1312,1278.2,1309.5z M1021.2,1387.4c-17.8,0-32.2-14.4-32.2-32.2
	c0-17.8,14.4-32.2,32.2-32.2c17.8,0,32.2,14.4,32.2,32.2C1053.4,1373,1039,1387.4,1021.2,1387.4z"/>
<path class="st1" d="M1981.8,1241.1h-31.5c0,16.1-5.9,30.8-15.7,42.1C1957.8,1280.9,1976.8,1263.6,1981.8,1241.1z"/>
<path class="st1" d="M1331.7,1189.5h58.9c-0.4-2.8-0.7-5.7-0.7-8.8h-58.2V1189.5z"/>
<path class="st1" d="M644.6,1264.7c0,2.9,0.6,5.7,1.4,8.3h252.1v-13.3h-253C644.8,1261.4,644.6,1263.1,644.6,1264.7z"/>
<path class="st1" d="M647.5,1252.4h250.6v-13.7l-239.4,1.6C653.9,1243.1,650,1247.3,647.5,1252.4z"/>
<path class="st1" d="M1291.4,1180.7c-2.4,0-4.4,2-4.4,4.4c0,2.4,2,4.4,4.4,4.4h32.2v-8.8H1291.4z"/>
<path class="st1" d="M905.5,1238.6v21.2v20.7H649.5c1.3,1.9,2.7,3.6,4.3,5.1h330.3c-12.2-12.2-19.8-28.9-20-47.5L905.5,1238.6z"/>
<path class="st1" d="M1837.2,1283.5c-9.9-11.3-16-26.2-16-42.4h-99.5v25.6h-133.8v-25.6h-133.5c0,0-49.9-5.3-61.9-43.5h-60.8v87.6
	h30.7v0.4h448.4c2.7-1.4,5.7-2.1,9-2.1H1837.2z"/>
<path class="st2" d="M839.7,614.3c60.6,34.3,58.5,39.7,99.5,61.3c37.2,19.6,58.5,54,95.7,56.3c3.1-4.8,5.7-9.6,6.4-14
	c-6.3-1.7-4.9-8-4.9-8l20-27.1l11.7,15.9c36.5-42.7,65.3-77.6,72.5-89c81.3,11.5,185.2-108.9,185.2-108.9s119.5-18.3,186-86
	c96.3,54.4,92.9,63,158.2,97.4c65.3,34.4,99.7,97.4,171.3,88.8c38.5-4.6,90.1,13.9,132.8,35c-13.9-39.2-31.5-76.7-52.4-112h-147.7
	c-20.5-54.9,63.1-87.5,104.5-63.8c-117.2-152.7-301.5-251.1-508.8-251.1c-181.8,0-345.9,75.7-462.6,197.3
	c27.2,14,45.1,34.3,39.3,57.6c34.8-73.1,200.5-26.8,167.2,62.1H816.6c-24.5,41.8-44.5,86.6-59.2,133.8
	C782.7,652.1,816.4,638,839.7,614.3z M1194.6,306.7c29.9,0,54,24.2,54,54s-24.2,54-54,54c-29.8,0-54-24.2-54-54
	S1164.8,306.7,1194.6,306.7z"/>
<path class="st3" d="M851.7,883.3l53.5,2.3c4.8-5.4,9.8-11.2,15.2-17.2c-7.5-0.3-16.6-0.9-25.6-2.2h-7.6c-10.7,3.7-26,4.8-35.5,5
	V883.3z"/>
<path class="st3" d="M839.6,882.8v-11.6c-9.5-0.2-25.6-1.1-36.5-5h-37.6v13.4L839.6,882.8z"/>
<path class="st3" d="M814,850.5c-13.5,5.8-35.7,7.1-48.5,7.4v0.9h41.7C811.8,854.8,813.7,851,814,850.5z"/>
<path class="st3" d="M876.6,850.3c0,0,0.2,0.5,0.6,1.2c1.1-0.9,2.1-1.7,3-2.6L876.6,850.3z"/>
<path class="st3" d="M733.9,768c-0.4,2.9-0.7,5.8-1,8.7l8.4-7.7C741.3,769,736.9,769.5,733.9,768z"/>
<path class="st3" d="M742.8,730.4l15.6-21.1l15.6,21.1c0,0,1.1,4.9-3.8,6.2c1.6,9.6,14.4,21.7,15.4,28.7c-1.6,4.7-10,3.7-10,3.7
	l11.8,10.8l-11.8,3.7l15.9,20.2c0,0,2,2.4-9.5,3c2.3,9.2,20.2,23.3,20.2,23.3l-4.7,1.8c0,0,3.8,8.8,15.1,15.3
	c4.1-3.5,12.6-11.3,14-16.8c-9.1-0.4-7.6-2.4-7.6-2.4l12.7-16.1l-9.4-2.9l9.4-8.6c0,0-6.7,0.8-8-3c0.8-5.6,11-15.2,12.3-23
	c-3.9-1.1-3.1-5-3.1-5l12.5-16.9l12.5,16.9c0,0,0.9,3.9-3.1,5c1.3,7.7,11.5,17.3,12.3,23c-1.3,3.8-8,3-8,3l9.4,8.6l-9.4,2.9
	l12.7,16.1c0,0,1.6,1.9-7.6,2.4c1.8,7.2,15.5,18.1,16.1,18.6c5.9-5.7,8.2-10.8,8.2-10.8l-5.5-2.1c0,0,21-16.6,23.7-27.3
	c-13.4-0.6-11.1-3.5-11.1-3.5l18.6-23.6l-13.8-4.3l13.8-12.6c0,0-9.9,1.2-11.7-4.3c1.1-8.2,16.2-22.3,18-33.6
	c-5.8-1.5-4.5-7.3-4.5-7.3l18.2-24.7l18.2,24.7c0,0,1.3,5.7-4.5,7.3c1.8,11.3,16.9,25.4,18,33.6c-1.9,5.5-11.7,4.3-11.7,4.3
	l13.8,12.6l-13.8,4.3l18.6,23.6c0,0,2.3,2.8-11.1,3.5c0.6,2.4,2.2,5.2,4.2,8c18.3-20.9,37.6-43,56.4-64.8
	c2.1-5.5,7.8-12.6,12.5-19.8c-37.2-2.2-58.5-36.7-95.7-56.3c-41.1-21.6-38.9-27-99.5-61.3c-23.3,23.7-57,37.8-82.3,45.6
	c-9.7,31.3-17.1,63.6-21.9,96.8c4.2-6.3,10.1-13.7,11.2-20.1C741.7,735.3,742.8,730.4,742.8,730.4z"/>
<path class="st3" d="M732.4,780.6c-0.6,5.3-1.1,10.6-1.5,15.9l10.4-13.2L732.4,780.6z"/>
<path class="st3" d="M751.3,878.9v-12.7H748c-7.1,0-13.6,2.5-18.8,6.5c0.1,1.8,0.1,3.5,0.2,5.3L751.3,878.9z"/>
<path class="st3" d="M751.3,858.8v-0.9c-6.1-0.1-14.2-0.5-22.5-1.5c0,0.8,0,1.6,0,2.4H748H751.3z"/>
<path class="st3" d="M730.2,806.1c-0.2,3.1-0.4,6.2-0.6,9.3c2.5-3.1,4.6-6.2,5.3-8.9C733,806.4,731.5,806.3,730.2,806.1z"/>
<path class="st1" d="M1841.3,601c-71.6,8.6-106-54.4-171.3-88.8c-65.3-34.4-61.9-43-158.2-97.4c-66.5,67.7-186,86-186,86
	S1221.9,621,1140.6,609.6c-7.2,11.5-36,46.3-72.5,89l8.3,11.2c0,0,1.4,6.3-4.9,8c2,12.4,18.5,27.8,19.7,36.8c-2,6-12.8,4.7-12.8,4.7
	l15.1,13.8l-15.1,4.7l20.4,25.9c0,0,2.5,3.1-12.1,3.8c2.9,11.8,26,29.9,26,29.9l-6.1,2.3c0,0,2.2,5.1,8,10.9
	c5.2-4.6,13.7-12.8,15.1-18.8c-10.9-0.5-9-2.8-9-2.8l15.2-19.2l-11.2-3.5l11.2-10.3c0,0-8,1-9.6-3.5c0.9-6.7,13.2-18.2,14.7-27.4
	c-4.7-1.3-3.6-5.9-3.6-5.9l14.9-20.1l14.9,20.1c0,0,1,4.7-3.6,5.9c1.5,9.2,13.8,20.7,14.7,27.4c-1.5,4.5-9.6,3.5-9.6,3.5l11.2,10.3
	l-11.2,3.5l15.2,19.2c0,0,1.9,2.3-9,2.8c2.2,8.8,19.3,22.3,19.3,22.3l-4.5,1.7c0,0,2.1,4.8,7.8,9.9c5.9-5.2,8-10.2,8-10.2l-4.7-1.8
	c0,0,18-14.2,20.2-23.4c-11.4-0.5-9.5-3-9.5-3l15.9-20.2l-11.8-3.7l11.8-10.8c0,0-8.4,1-10-3.7c1-7,13.8-19.1,15.4-28.7
	c-4.9-1.3-3.8-6.2-3.8-6.2l15.6-21.1l15.6,21.1c0,0,1.1,4.9-3.8,6.2c1.6,9.6,14.4,21.7,15.4,28.7c-1.6,4.7-10,3.7-10,3.7l11.8,10.8
	l-11.8,3.7l15.9,20.2c0,0,2,2.4-9.5,3c2.3,9.2,20.2,23.4,20.2,23.4l-4.7,1.8c0,0,1,2.3,3.4,5.4c8.6-19.8,17.8-41.5,26.8-63
	c-0.5-1.3-0.2-2.6-0.2-2.6l3-4.1c29.7-70.7,57.2-138.7,57.2-138.7l-91.4,42l91.4-113.7l-47.8-51.6c0,0,128.4-11.5,174.4-71.6
	l132.4,146.1l-87.6,51.6l87.6-25.8l-144,79.6l165.5-32.5l-93.1,85.1c4.9,7.1,10,13.9,10.7,18.8c-2,6-12.8,4.7-12.8,4.7l4.6,4.2
	l65.4-19.3l3.8-5.1l2.4,3.3l53.3-15.7l94.5-112.1l54.2-19.4l114.7,14l-83.5,93.4l5.3,7.2c0,0,1.4,6.3-4.9,8
	c2,12.4,18.5,27.8,19.7,36.8c-2,6-12.8,4.7-12.8,4.7l15.1,13.8l-15.1,4.7l20.4,25.9c0,0,2.5,3.1-12.1,3.8
	c1.7,6.7,9.7,15.3,16.4,21.6h12.7l10.9-13.9l-12.1-3.8l12.1-11.1c0,0-8.6,1-10.3-3.8c1-7.2,14.2-19.6,15.8-29.4
	c-5-1.4-3.9-6.4-3.9-6.4l16-21.7l16,21.7c0,0,1.1,5-3.9,6.4c1.6,9.9,14.8,22.2,15.8,29.4c-1.6,4.8-10.3,3.8-10.3,3.8l12.1,11.1
	l-12.1,3.8l16.3,20.7c0,0,0.6,0.8-1.1,1.6c4.1,4.5,6.7,10.5,6.7,17c0,0.2,0,0.3,0,0.5h14c4.5-4.8,8.6-10.1,9.7-14.4
	c-13.4-0.6-11.1-3.5-11.1-3.5l17.4-22.1c0-0.7,0-1.3,0-2l-12.5-3.9l12.1-11.1l-0.1-1.5c-2.9,0.1-8.6-0.4-10-4.4
	c0.6-4.2,4.7-9.8,8.8-15.8c-4.3-58-16.3-113.9-35-166.6C1931.4,614.9,1879.8,596.4,1841.3,601z"/>
<path class="st1" d="M1602.5,869.5l-11.7,2.6c1.1,1.5,2.5,3.1,4.2,4.8C1597.1,874.9,1599.9,872.3,1602.5,869.5z"/>
<path class="st1" d="M1447.2,909.2c0.9-1,1.7-1.9,2.6-2.9c0.4-0.4,0.7-0.8,1.1-1.1c1.1-1.1,2.2-2.3,3.4-3.3c0,0,0.1-0.1,0.1-0.1
	l-29.7,6.5L1447.2,909.2z"/>
<path class="st1" d="M1278.6,879.6c-9.9,1.4-20,1.9-27.2,2.1v19l17.5,0.8C1271.9,894.7,1275.2,887.4,1278.6,879.6z"/>
<path class="st1" d="M1803.4,865.9l-6.1-2.3c0,0,23-18.2,26-29.9c-14.6-0.7-12.1-3.8-12.1-3.8l20.4-25.9l-15.1-4.7l15.1-13.8
	c0,0-8.1,1-11.6-2.7l-32.4,36.3l-70.9,28.2l-26.8,34h100.6C1800.1,873.7,1803.4,865.9,1803.4,865.9z"/>
<path class="st1" d="M1145.3,896.1v-15.2c-13.1-0.3-36.4-1.7-48.9-8.3c1.4-0.6,2.6-1.3,3.8-1.9c-12.6,1.8-25.5,2.4-34.6,2.6v7
	c1.9,3.8,3.2,8,3.7,12.5L1145.3,896.1z"/>
<path class="st1" d="M920.4,868.4c-5.4,6.1-10.4,11.8-15.2,17.2l20.7,0.9v-18C924.2,868.5,922.3,868.5,920.4,868.4z"/>
<path class="st1" d="M1237.1,881.7c-10.7-0.2-28-1.2-41.3-4.9c-12.3,3-27.4,3.8-37,4.1v15.8l78.3,3.4V881.7z"/>
<path class="st1" d="M985.5,889.1l61.7,2.7v-18.6c-14.4-0.3-38-1.7-55.3-7.1h-18c-1,0.1-1.9,0.2-2.9,0.4
	C978.3,872,983.6,880,985.5,889.1z"/>
<path class="st1" d="M942.6,887.3l35.1,1.5c-2.8-9.9-10.4-17.7-20.1-20.9c-5.6,0.4-10.7,0.6-15,0.7V887.3z"/>
<path class="st1" d="M985.5,835.8l-5.6,2.1c0,0,3.8,8.7,14.7,16.1c8.6-7.1,11.7-14.3,11.7-14.3l-6.1-2.3c0,0,23-18.2,26-29.9
	c-14.6-0.7-12.1-3.8-12.1-3.8l20.4-25.9l-15.1-4.7l15.1-13.8c0,0-10.8,1.3-12.8-4.7c0.1-0.9,0.4-1.9,0.8-2.9
	c-18.8,21.7-38.1,43.8-56.4,64.8C973,825.9,985.5,835.8,985.5,835.8z"/>
<path class="st4" d="M1296.7,869.8c4.2-3.9,9.2-9.4,10.3-13.5c-9.1-0.4-7.6-2.4-7.6-2.4l12.7-16.1l-9.4-2.9l9.4-8.6c0,0-6.7,0.8-8-3
	c0.8-5.6,11.1-15.3,12.3-23c-1.7-0.5-2.5-1.4-2.8-2.4c-9.1,21.6-18.3,43.2-26.8,63C1288.8,863.6,1292.1,866.9,1296.7,869.8z"/>
<path class="st4" d="M1357.1,876.5c0,0,0.2,0.5,0.6,1.2c1.1-0.9,2.1-1.7,3-2.6L1357.1,876.5z"/>
<path class="st4" d="M1558.8,804l20.4,25.9c0,0,2.5,3.1-12.1,3.8c2.9,11.8,26,29.9,26,29.9l-6.1,2.3c0,0,1.1,2.6,3.8,6.2l11.7-2.6
	c3.5-3.8,6.7-8,7.6-11.4c-10.9-0.5-9-2.8-9-2.8l15.2-19.3l-11.2-3.5l11.2-10.3c0,0-8,1-9.5-3.5c0.9-6.7,13.2-18.2,14.7-27.4
	c-4.7-1.3-3.6-5.9-3.6-5.9l11.1-15l-65.4,19.3l10.5,9.6L1558.8,804z"/>
<path class="st4" d="M1466.3,890.2c-14.7,3.3-32,4.2-43.3,4.5v13.4l1.6,0.1l29.7-6.5c0.2-0.2,0.5-0.5,0.7-0.7
	c1.5-1.3,2.9-2.6,4.5-3.8c0.1-0.1,0.2-0.1,0.3-0.2c1.4-1.1,2.8-2.1,4.2-3.1c0.4-0.3,0.9-0.6,1.3-0.9c1.1-0.7,2.2-1.4,3.3-2.1
	C1467.9,890.8,1467,890.5,1466.3,890.2z"/>
<path class="st4" d="M1320.1,903.7v-6.3c-11-0.2-30.6-1.4-41-7c11.7-5.2,15.5-14,15.5-14l-0.3-0.1c-4.8,1.5-10.2,2.5-15.7,3.3
	c-3.4,7.7-6.6,15-9.7,21.8L1320.1,903.7z"/>
<path class="st4" d="M1406.4,894.7c-9.5-0.2-23.5-0.9-36.5-3.1c-10.9,4.5-28.2,5.6-38.4,5.8v6.8l74.9,3.3V894.7z"/>
<path class="st4" d="M1643.8,791.3c1.5,9.2,13.8,20.7,14.7,27.4c-1.5,4.5-9.6,3.5-9.6,3.5l11.2,10.3l-11.2,3.5l15.2,19.3
	c0,0,1.9,2.3-9,2.8c2.2,8.8,19.3,22.3,19.3,22.3l-2.2,0.8h17.8l26.8-34l70.9-28.2l32.4-36.3c-0.5-0.6-1-1.2-1.2-2
	c1.2-9,17.7-24.4,19.7-36.8c-6.3-1.7-4.9-8-4.9-8l20-27.1l14.7,19.9l83.5-93.4l-114.7-14l-54.2,19.4l-94.5,112.1l-53.3,15.7
	l12.4,16.8C1647.4,785.4,1648.5,790.1,1643.8,791.3z"/>
<path class="st4" d="M1338.3,795.4c0,0,0.9,3.9-3.1,5c1.3,7.7,11.5,17.3,12.3,23c-1.3,3.8-8,3-8,3l9.4,8.6l-9.4,2.9l12.7,16.1
	c0,0,1.6,1.9-7.6,2.4c1.8,7.2,15.5,18.1,16.1,18.6c6-5.7,8.2-10.8,8.2-10.8l-5.5-2.1c0,0,21-16.6,23.7-27.3
	c-13.4-0.6-11.1-3.5-11.1-3.5l18.6-23.6l-13.8-4.3l13.8-12.6c0,0-9.9,1.2-11.7-4.3c1.1-8.2,16.2-22.3,18-33.6
	c-5.8-1.5-4.5-7.3-4.5-7.3l18.2-24.7l18.2,24.7c0,0,1.3,5.7-4.5,7.3c1.8,11.3,16.9,25.4,18,33.6c-1.9,5.5-11.7,4.3-11.7,4.3
	l13.8,12.6l-13.8,4.3l18.6,23.6c0,0,2.3,2.8-11.1,3.5c2.7,10.7,23.7,27.3,23.7,27.3l-5.5,2.1c0,0,3.8,8.7,14.7,16.1
	c8.6-7.1,11.7-14.3,11.7-14.3l-6.1-2.3c0,0,23-18.2,26-29.9c-14.6-0.7-12.1-3.8-12.1-3.8l20.4-25.9l-15.1-4.7l15.1-13.8
	c0,0-10.8,1.3-12.8-4.7c1.2-9,17.7-24.4,19.7-36.8c-6.3-1.7-4.9-8-4.9-8l20-27.1l20,27.1c0,0,1.4,6.3-4.9,8c0.9,5.7,4.9,11.9,9,18
	l93.1-85.1l-165.5,32.5l144-79.6l-87.6,25.8l87.6-51.6l-132.4-146.1c-46,60.2-174.4,71.6-174.4,71.6l47.8,51.6l-91.4,113.7l91.4-42
	c0,0-27.6,68-57.2,138.7l9.5-12.8L1338.3,795.4z"/>
<path class="st5" d="M2004.4,866.7c-1.1,4.4-5.2,9.7-9.7,14.4h15.2c0.5-10.3,0.8-20.6,0.8-31c0-3-0.1-6-0.1-9l-17.4,22.1
	C1993.4,863.3,1991.1,866.1,2004.4,866.7z"/>
<path class="st5" d="M2010.7,839.3c-0.1-5-0.2-10-0.4-15l-12.1,11.1L2010.7,839.3z"/>
<path class="st5" d="M2010.2,822.8c-0.3-6.8-0.6-13.5-1.1-20.2c-4.2,6-8.3,11.7-8.8,15.8C2001.6,822.5,2007.3,822.9,2010.2,822.8z"
	/>
<path class="st5" d="M1974.2,863.7c1.7-0.8,1.1-1.6,1.1-1.6l-16.3-20.7l12.1-3.8l-12.1-11.1c0,0,8.6,1,10.3-3.8
	c-1-7.2-14.2-19.6-15.8-29.4c5-1.4,3.9-6.4,3.9-6.4l-16-21.7l-16,21.7c0,0-1.1,5,3.9,6.4c-1.6,9.9-14.8,22.2-15.8,29.4
	c1.6,4.8,10.3,3.8,10.3,3.8l-12.1,11.1l12.1,3.8l-10.9,13.9h42.5C1962.8,855.2,1969.5,858.5,1974.2,863.7z"/>
<path class="st5" d="M1833.6,736c0,0-1.4,6.3,4.9,8c-2,12.4-18.5,27.8-19.7,36.8c0.3,0.8,0.7,1.5,1.2,2c3.5,3.7,11.6,2.7,11.6,2.7
	l-15.1,13.8l15.1,4.7l-20.4,25.9c0,0-2.5,3.1,12.1,3.8c-2.9,11.8-26,29.9-26,29.9l6.1,2.3c0,0-3.4,7.8-12.9,15.3h13.7
	c0-0.2,0-0.3,0-0.5c0-14,11.5-25.5,25.5-25.5h70.4c-6.7-6.3-14.8-15-16.4-21.6c14.6-0.7,12.1-3.8,12.1-3.8l-20.4-25.9l15.1-4.7
	l-15.1-13.8c0,0,10.8,1.3,12.8-4.7c-1.2-9-17.7-24.4-19.7-36.8c6.3-1.7,4.9-8,4.9-8l-5.3-7.2l-14.7-19.9L1833.6,736z"/>
<path class="st5" d="M1406.4,907.4l16.7,0.7v-13.4c11.2-0.3,28.6-1.2,43.3-4.5c-1.5-0.6-3-1.3-4.3-2c5.4-2.4,9.7-5.2,13.1-8.1
	c-10.9-7.3-14.7-16.1-14.7-16.1l5.5-2.1c0,0-21-16.6-23.7-27.3c13.4-0.6,11.1-3.5,11.1-3.5l-18.6-23.6l13.8-4.3l-13.8-12.6
	c0,0,9.9,1.2,11.7-4.3c-1.1-8.2-16.2-22.3-18-33.6c5.8-1.5,4.5-7.3,4.5-7.3l-18.2-24.7l-18.2,24.7c0,0-1.3,5.7,4.5,7.3
	c-1.8,11.3-16.9,25.4-18,33.6c1.9,5.5,11.7,4.3,11.7,4.3l-13.8,12.6l13.8,4.3l-18.6,23.6c0,0-2.3,2.8,11.1,3.5
	c-2.7,10.7-23.7,27.3-23.7,27.3l5.5,2.1c0,0-2.2,5.1-8.2,10.8l0.1,0l-0.2,0.1c-0.9,0.9-1.9,1.7-3,2.6c1.5,2.6,5.7,8.7,14.8,12.8
	c-0.8,0.4-1.8,0.8-2.7,1.2c13,2.2,26.9,2.9,36.5,3.1V907.4z"/>
<path class="st5" d="M1316.4,800.3c-1.2,7.7-11.5,17.3-12.3,23c1.3,3.8,8,3,8,3l-9.4,8.6l9.4,2.9l-12.7,16.1c0,0-1.6,1.9,7.6,2.4
	c-1,4.2-6.1,9.6-10.3,13.5c1.8,1.1,3.7,2.2,5.9,3.2c-2.4,1.3-5.3,2.4-8.4,3.3l0.3,0.1c0,0-3.8,8.8-15.5,14c10.5,5.5,30,6.7,41,7v6.3
	l11.4,0.5v-6.8c10.1-0.2,27.5-1.3,38.4-5.8c0.9-0.4,1.9-0.7,2.7-1.2c-9.1-4-13.4-10.2-14.8-12.8c-0.4-0.7-0.6-1.2-0.6-1.2l3.6-1.4
	l0.2-0.1l-0.1,0c-0.6-0.5-14.4-11.5-16.1-18.6c9.1-0.4,7.6-2.4,7.6-2.4l-12.7-16.1l9.4-2.9l-9.4-8.6c0,0,6.7,0.8,8-3
	c-0.8-5.6-11-15.3-12.3-23c3.9-1.1,3.1-5,3.1-5l-12.5-16.9l-9.5,12.8l-3,4.1c0,0-0.3,1.3,0.2,2.6
	C1313.9,798.9,1314.7,799.9,1316.4,800.3z"/>
<path class="st5" d="M1195.9,876.8c13.3,3.7,30.5,4.7,41.3,4.9v18.4l14.2,0.6v-19c7.2-0.2,17.3-0.7,27.2-2.1
	c5.5-0.8,10.9-1.8,15.7-3.3c3.1-0.9,5.9-2,8.4-3.3c-2.2-1-4.2-2.1-5.9-3.2c-4.6-2.9-7.8-6.2-10-8.9c-2.4-3.1-3.4-5.4-3.4-5.4
	l4.7-1.8c0,0-18-14.2-20.2-23.4c11.4-0.5,9.5-3,9.5-3l-15.9-20.2l11.8-3.7l-11.8-10.8c0,0,8.4,1,10-3.7c-1-7-13.8-19.1-15.4-28.7
	c4.9-1.3,3.8-6.2,3.8-6.2l-15.6-21.1l-15.6,21.1c0,0-1.1,4.9,3.8,6.2c-1.6,9.6-14.4,21.7-15.4,28.7c1.6,4.7,10,3.7,10,3.7
	l-11.8,10.8l11.8,3.7l-15.9,20.2c0,0-2,2.4,9.5,3c-2.3,9.2-20.2,23.4-20.2,23.4l4.7,1.8c0,0-2.2,5-8,10.2c2.7,2.4,6.2,4.8,10.6,6.8
	C1204.4,874.3,1200.3,875.7,1195.9,876.8z"/>
<path class="st5" d="M1556.8,736l-20-27.1l-20,27.1c0,0-1.4,6.3,4.9,8c-2,12.4-18.5,27.8-19.7,36.8c2,6,12.8,4.7,12.8,4.7
	l-15.1,13.8l15.1,4.7l-20.4,25.9c0,0-2.5,3.1,12.1,3.8c-2.9,11.8-26,29.9-26,29.9l6.1,2.3c0,0-3.1,7.2-11.7,14.3
	c-3.4,2.9-7.7,5.7-13.1,8.1c1.3,0.7,2.8,1.4,4.3,2c0.7,0.3,1.6,0.5,2.3,0.8c0,0,0.1-0.1,0.1-0.1c0.5-0.3,1-0.6,1.5-0.9
	c1.2-0.7,2.4-1.3,3.7-1.9c0.4-0.2,0.9-0.4,1.3-0.7c1.7-0.8,3.4-1.5,5.2-2.1c0.1,0,0.2-0.1,0.4-0.1c1.6-0.6,3.3-1.1,5-1.5
	c0.6-0.2,1.1-0.3,1.7-0.4c1.3-0.3,2.6-0.6,3.9-0.8c0.7-0.1,1.3-0.2,2-0.3c1.3-0.2,2.7-0.4,4.1-0.5c0.6-0.1,1.2-0.1,1.8-0.2
	c2-0.2,4-0.3,6.1-0.3h87.5l-2.2-0.8c0,0,1.7-1.4,4.2-3.5c-1.7-1.7-3.1-3.3-4.2-4.8c-2.7-3.6-3.8-6.2-3.8-6.2l6.1-2.3
	c0,0-23-18.2-26-29.9c14.6-0.7,12.1-3.8,12.1-3.8l-20.4-25.9l15.1-4.7l-10.5-9.6l-4.6-4.2c0,0,10.8,1.3,12.8-4.7
	c-0.7-4.9-5.8-11.7-10.7-18.8c-4.1-6-8.1-12.3-9-18C1558.2,742.2,1556.8,736,1556.8,736z"/>
<path class="st5" d="M1621.3,791.3c-1.5,9.2-13.8,20.7-14.7,27.4c1.5,4.5,9.5,3.5,9.5,3.5l-11.2,10.3l11.2,3.5l-15.2,19.3
	c0,0-1.9,2.3,9,2.8c-0.9,3.4-4,7.6-7.6,11.4c-2.6,2.8-5.4,5.4-7.6,7.3c-2.4,2.2-4.2,3.5-4.2,3.5l2.2,0.8h79.2l2.2-0.8
	c0,0-17.1-13.5-19.3-22.3c10.9-0.5,9-2.8,9-2.8l-15.2-19.3l11.2-3.5l-11.2-10.3c0,0,8,1,9.6-3.5c-0.9-6.7-13.2-18.2-14.7-27.4
	c4.7-1.3,3.6-5.9,3.6-5.9l-12.4-16.8l-2.4-3.3l-3.8,5.1l-11.1,15C1617.7,785.4,1616.6,790.1,1621.3,791.3z"/>
<path class="st5" d="M974,866.2h-3.4c0.2,0.1,0.3,0.2,0.5,0.4C972,866.5,973,866.3,974,866.2z"/>
<path class="st5" d="M880.2,848.9c-0.9,0.9-1.9,1.7-3,2.6c0.9,1.5,2.8,4.4,6.1,7.3h64.6h40c2.5-1.5,4.8-3.1,6.7-4.8
	c-10.9-7.3-14.7-16.1-14.7-16.1l5.6-2.1c0,0-12.6-9.9-19.5-19.4c-2-2.8-3.6-5.5-4.2-8c13.4-0.6,11.1-3.5,11.1-3.5l-18.6-23.6
	l13.8-4.3l-13.8-12.6c0,0,9.9,1.2,11.7-4.3c-1.1-8.2-16.2-22.3-18-33.6c5.8-1.5,4.5-7.3,4.5-7.3l-18.2-24.7L916,719.3
	c0,0-1.3,5.7,4.5,7.3c-1.8,11.3-16.9,25.4-18,33.6c1.9,5.5,11.7,4.3,11.7,4.3l-13.8,12.6l13.8,4.3L895.6,805c0,0-2.3,2.8,11.1,3.5
	c-2.7,10.7-23.7,27.3-23.7,27.3l5.5,2.1c0,0-2.2,5.1-8.2,10.8l0.1,0L880.2,848.9z"/>
<path class="st5" d="M925.9,868.6v18l16.7,0.7v-18.7c4.3-0.1,9.4-0.3,15-0.7c-3-1-6.2-1.7-9.6-1.7h-53.2c9,1.3,18.1,1.9,25.6,2.2
	C922.3,868.5,924.2,868.5,925.9,868.6z"/>
<path class="st5" d="M807.3,858.8h76.1c-3.3-2.9-5.3-5.7-6.1-7.3c-0.4-0.7-0.6-1.2-0.6-1.2l3.6-1.4l0.2-0.1l-0.1,0
	c-0.6-0.5-14.4-11.5-16.1-18.6c9.1-0.4,7.6-2.4,7.6-2.4L859,811.6l9.4-2.9l-9.4-8.6c0,0,6.7,0.8,8-3c-0.8-5.6-11-15.2-12.3-23
	c3.9-1.1,3.1-5,3.1-5l-12.5-16.9l-12.5,16.9c0,0-0.9,3.9,3.1,5c-1.3,7.7-11.5,17.3-12.3,23c1.3,3.8,8,3,8,3l-9.4,8.6l9.4,2.9
	l-12.7,16.1c0,0-1.6,1.9,7.6,2.4c-1.4,5.5-9.8,13.3-14,16.8c1.3,0.8,2.7,1.5,4.3,2.2c-0.9,0.5-1.8,0.9-2.8,1.3
	C813.7,851,811.8,854.8,807.3,858.8z"/>
<path class="st5" d="M887.2,866.2h-35.5v5C861.2,871,876.5,869.9,887.2,866.2z"/>
<path class="st5" d="M839.6,882.8l4.6,0.2v-16.8h-41.1c10.9,3.9,26.9,4.8,36.5,5V882.8z"/>
<path class="st5" d="M751.3,858.8h14.2v-0.9c12.8-0.3,34.9-1.6,48.5-7.4c1-0.4,1.9-0.9,2.8-1.3c-1.5-0.7-2.9-1.4-4.3-2.2
	c-11.3-6.5-15.1-15.3-15.1-15.3l4.7-1.8c0,0-18-14.2-20.2-23.3c11.4-0.5,9.5-3,9.5-3l-15.9-20.2l11.8-3.7L775.5,769
	c0,0,8.4,1,10-3.7c-1-7-13.8-19.1-15.4-28.7c4.9-1.3,3.8-6.2,3.8-6.2l-15.6-21.1l-15.6,21.1c0,0-1.1,4.9,3.8,6.2
	c-1,6.4-7,13.7-11.2,20.1c-0.5,3.8-1.1,7.5-1.6,11.3c3,1.5,7.4,1,7.4,1l-8.4,7.7c-0.2,1.3-0.3,2.6-0.5,4l8.9,2.8l-10.4,13.2
	c-0.3,3.2-0.5,6.4-0.7,9.6c1.2,0.2,2.7,0.3,4.7,0.4c-0.7,2.7-2.7,5.8-5.3,8.9c-0.6,11.5-0.9,23.1-0.9,34.8c0,2.1,0.1,4.1,0.1,6.2
	c8.3,1,16.5,1.3,22.5,1.5V858.8z"/>
<polygon class="st5" points="765.5,879.6 765.5,866.2 751.3,866.2 751.3,878.9 "/>
<path class="st5" d="M1021.6,754.6c2,6,12.8,4.7,12.8,4.7l-15.1,13.8l15.1,4.7l-20.4,25.9c0,0-2.5,3.1,12.1,3.8
	c-2.9,11.8-26,29.9-26,29.9l6.1,2.3c0,0-3.1,7.2-11.7,14.3c-1.9,1.6-4.2,3.2-6.7,4.8h43.1c15.1,0,28.2,8.8,34.5,21.5v-7
	c9.2-0.2,22-0.8,34.6-2.6c11-6.2,14.6-14.7,14.6-14.7l-4.5-1.7c0,0,1.7-1.4,4.2-3.5c-5.8-5.8-8-10.9-8-10.9l6.1-2.3
	c0,0-23-18.2-26-29.9c14.6-0.7,12.1-3.8,12.1-3.8l-20.4-25.9l15.1-4.7l-15.1-13.8c0,0,10.8,1.3,12.8-4.7c-1.2-9-17.7-24.4-19.7-36.8
	c6.3-1.7,4.9-8,4.9-8l-8.3-11.2l-11.7-15.9l-20,27.1c0,0-1.4,6.3,4.9,8c-0.7,4.4-3.3,9.3-6.4,14c-4.6,7.2-10.3,14.3-12.5,19.8
	C1022,752.7,1021.7,753.7,1021.6,754.6z"/>
<path class="st5" d="M1047.3,891.8l14.3,0.6c-2.3-14.8-15.1-26.2-30.6-26.2h-39.1c17.3,5.3,40.9,6.7,55.3,7.1V891.8z"/>
<path class="st5" d="M1114.8,855.9c0,0-3.7,8.5-14.6,14.7c-1.2,0.7-2.4,1.3-3.8,1.9c12.5,6.6,35.8,8,48.9,8.3v15.2l13.6,0.6v-15.8
	c9.6-0.2,24.7-1,37-4.1c4.5-1.1,8.6-2.5,11.9-4.2c-4.5-2-7.9-4.4-10.6-6.8c-5.7-5-7.8-9.9-7.8-9.9l4.5-1.7c0,0-17.1-13.5-19.3-22.3
	c10.9-0.5,9-2.8,9-2.8l-15.2-19.2l11.2-3.5l-11.2-10.3c0,0,8,1,9.6-3.5c-0.9-6.7-13.2-18.2-14.7-27.4c4.7-1.3,3.6-5.9,3.6-5.9
	l-14.9-20.1l-14.9,20.1c0,0-1,4.7,3.6,5.9c-1.5,9.2-13.8,20.7-14.7,27.4c1.5,4.5,9.6,3.5,9.6,3.5l-11.2,10.3l11.2,3.5l-15.2,19.2
	c0,0-1.9,2.3,9,2.8c-1.5,6-9.9,14.2-15.1,18.8c-2.4,2.1-4.2,3.5-4.2,3.5L1114.8,855.9z"/>
<path class="st6" d="M839.6,882.8l-74.1-3.2l-14.2-0.6l-22-1c0.2,3.7,0.4,7.5,0.6,11.2l114.3,4V883L839.6,882.8z"/>
<path class="st6" d="M1061.6,892.4l-14.3-0.6l-61.7-2.7c0.6,2.6,0.9,5.3,0.9,8.1c0,0.3,0,0.7-0.1,1l75.3,2.7
	c0.1-1.2,0.4-2.4,0.4-3.7C1062.1,895.6,1061.8,894,1061.6,892.4z"/>
<path class="st6" d="M977.7,888.8l-35.1-1.5l-16.7-0.7l-20.7-0.9l-53.5-2.3v10.2l127.2,4.5c0-0.3,0.1-0.5,0.1-0.7
	C979,894.3,978.4,891.5,977.7,888.8z"/>
<path class="st6" d="M1424.6,908.2l-1.6-0.1l-16.7-0.7l-74.9-3.3l-11.4-0.5l-51.2-2.2l-17.5-0.8l-14.2-0.6l-78.3-3.4l-13.6-0.6
	l-76-3.3c0.2,1.5,0.3,3,0.3,4.5c0,1.3-0.1,2.6-0.2,3.9l2.4,0.1c32.5-0.2,62.7,16.8,79.3,44.8c8.7,14.6,18.1,32.1,27.3,51.1
	l231.5-10.1c4.8-17.4,10.7-33.7,18-48.3h-0.1c1-2,2-3.9,3.1-5.9c0.2-0.3,0.4-0.7,0.6-1c0.9-1.6,1.8-3.2,2.8-4.8
	c0.2-0.4,0.4-0.7,0.7-1.1c1-1.7,2.1-3.3,3.2-5c0.1-0.1,0.2-0.3,0.3-0.4c1.2-1.8,2.5-3.6,3.8-5.3c0,0,0-0.1,0.1-0.1
	c1.2-1.6,2.4-3.1,3.7-4.6c0.3-0.4,0.6-0.7,0.9-1.1c0.2-0.2,0.3-0.4,0.5-0.5L1424.6,908.2z"/>
<path class="st1" d="M1409.9,987.2l-231.5,10.1c15.1,30.9,29.8,66,40.7,99.5l173,6.8C1394.6,1067.4,1399.6,1025.1,1409.9,987.2z"/>
<path class="st5" d="M1323.6,1172.5V1125h67.4c0.3-6.8,0.7-14,1.2-21.5l-173-6.8c4.8,14.6,8.7,28.8,11.8,42.4
	c0.6,2.4,1.1,4.8,1.6,7.2c0.4,2,0.8,4.1,1.2,6.1c0.8,4.6,1.6,9.1,2.2,13.5c0,0.2,0.1,0.4,0.1,0.7c0.2,1.4,0.3,2.8,0.5,4.1
	c0.2,1.7,0.3,3.5,0.5,5.2h46.3c2.2-2,5.1-3.2,8.3-3.2H1323.6z"/>
<path class="st5" d="M1331.7,1172.5h58.2c0-10,0.2-23.5,0.7-39.4h-58.9V1172.5z"/>
<path class="st7" d="M1774.1,524h147.7c-13.1-22.2-27.5-43.5-43.1-63.8C1837.1,436.5,1753.5,469.1,1774.1,524z"/>
<path class="st7" d="M946.5,464c5.8-23.3-12-43.6-39.3-57.6c-34.7,36.1-65.1,76.3-90.6,119.7h297.1
	C1146.9,437.2,981.3,390.9,946.5,464z"/>
<circle class="st8" cx="1194.6" cy="360.7" r="54"/>
<path class="st1" d="M2224.7,1447.8c0,20.8,16.9,37.7,37.7,37.7c20.8,0,37.7-16.9,37.7-37.7c0-20.8-16.9-37.7-37.7-37.7
	C2241.6,1410.1,2224.7,1427,2224.7,1447.8z"/>
<path class="st1" d="M1448.4,1466.7c0-10.4-8.4-18.9-18.9-18.9c-10.4,0-18.9,8.4-18.9,18.9c0,10.4,8.4,18.9,18.9,18.9
	C1440,1485.5,1448.4,1477.1,1448.4,1466.7z"/>
<path class="st1" d="M2484.1,1260.4c11.7,0,21.1-9.4,21.1-21.1c0-11.7-9.5-21.1-21.1-21.1s-21.1,9.4-21.1,21.1
	C2463,1250.9,2472.5,1260.4,2484.1,1260.4z"/>
<path class="st7" d="M894.7,311.7c11.7,0,21.1-9.4,21.1-21.1c0-11.7-9.4-21.1-21.1-21.1c-11.7,0-21.1,9.4-21.1,21.1
	C873.6,302.2,883.1,311.7,894.7,311.7z"/>
<path class="st7" d="M2076,786c11.7,0,21.1-9.4,21.1-21.1c0-11.7-9.4-21.1-21.1-21.1c-11.7,0-21.1,9.5-21.1,21.1
	C2054.9,776.5,2064.4,786,2076,786z"/>
<path class="st7" d="M2132.4,456.5c11.7,0,21.1-9.4,21.1-21.1c0-11.7-9.5-21.1-21.1-21.1s-21.1,9.5-21.1,21.1
	C2111.3,447.1,2120.8,456.5,2132.4,456.5z"/>
<path class="st7" d="M642.8,408.7c0-11.7-9.4-21.1-21.1-21.1c-11.7,0-21.1,9.4-21.1,21.1c0,11.7,9.4,21.1,21.1,21.1
	C633.4,429.8,642.8,420.4,642.8,408.7z"/>
<path class="st7" d="M1821.1,269.6c11.7,0,21.1-9.5,21.1-21.1c0-11.7-9.4-21.1-21.1-21.1c-11.7,0-21.1,9.4-21.1,21.1
	C1800,260.1,1809.4,269.6,1821.1,269.6z"/>
<path class="st7" d="M687.7,693c0-11.7-9.4-21.1-21.1-21.1c-11.7,0-21.1,9.5-21.1,21.1c0,11.7,9.4,21.1,21.1,21.1
	C678.2,714.1,687.7,704.6,687.7,693z"/>
<path class="st1" d="M1021.2,1323c-17.8,0-32.2,14.4-32.2,32.2c0,17.8,14.4,32.2,32.2,32.2c17.8,0,32.2-14.4,32.2-32.2
	C1053.4,1337.4,1039,1323,1021.2,1323z"/>
<path class="st9" d="M1990.3,1288.3v-2.6h-58c-11.7,12.3-28.3,20-46.6,20c-18.4,0-34.9-7.7-46.6-20h-28.2
	c-6.8,3.4-11.5,10.4-11.5,18.4c0,3.4,0.8,6.6,2.4,9.4h461.6c7.6,0,13.9-6.2,13.9-13.9c0-3.8-1.6-7.3-4.1-9.8c-2.5-2.6-6-4.1-9.8-4.1
	h-139.2v2.6H1990.3z"/>
<path class="st5" d="M1810.9,1285.7h-448.4v20h-69.6v-20h-4.8c-7.6,0-13.9,6.3-13.9,13.9c0,3.9,1.6,7.3,4.1,9.9
	c2.5,2.5,6,4.1,9.8,4.1h513.8c-1.6-2.8-2.4-6.1-2.4-9.4C1799.4,1296,1804.1,1289,1810.9,1285.7z"/>
<path class="st9" d="M836.9,1293.4H673.2c-6.7,0-12.8-2.3-17.7-6.2c-0.6-0.4-1.2-0.9-1.7-1.5h-65.7c-12.3,12.2-29.2,19.8-47.9,19.8
	c-18.7,0-35.7-7.6-47.9-19.8H381.3c-7.7,0-13.9,6.3-13.9,13.9c0,3.9,1.6,7.3,4.1,9.9c2.6,2.5,6.1,4.1,9.9,4.1h470.3
	c0.6-1.5,0.8-3.1,0.8-4.8C852.3,1300.3,845.4,1293.4,836.9,1293.4z"/>
<path class="st5" d="M1243.5,1299.6c0-3.8-1.6-7.3-4.1-9.8c-2.6-2.6-6.1-4.1-9.9-4.1H1080c-12.3,12.2-29.2,19.8-47.9,19.8
	c-18.7,0-35.7-7.6-47.9-19.8H653.8c0.5,0.6,1.1,1.1,1.7,1.5c4.9,3.9,11,6.2,17.7,6.2h163.7c8.5,0,15.4,6.9,15.4,15.4
	c0,1.7-0.2,3.3-0.8,4.8h378.1C1237.3,1313.5,1243.5,1307.3,1243.5,1299.6z"/>
<path class="st10" d="M362.3,1116.6v52.9h15c0.1-13.6,0.7-32,2.4-52.9H362.3z"/>
<path class="st11" d="M664.9,866.2h60.4c6.4-4.7,14.2-7.4,22.7-7.4h-19.1h-63.9c-17.2,0-31.7,11.3-36.7,26.8l7.9,0.3
	C640.6,874.4,651.8,866.2,664.9,866.2z"/>
<path class="st11" d="M1069.2,892.8c-0.5-4.4-1.8-8.6-3.7-12.5c-6.3-12.7-19.4-21.5-34.5-21.5h-43.1h-40c8.5,0,16.3,2.8,22.7,7.4
	h3.4h18h39.1c15.5,0,28.2,11.4,30.6,26.2c0.2,1.6,0.5,3.2,0.5,4.8c0,1.3-0.2,2.5-0.4,3.7l7.6,0.3c0.1-1.3,0.2-2.6,0.2-3.9
	C1069.5,895.7,1069.4,894.2,1069.2,892.8z"/>
<path class="st11" d="M985.5,889.1c-2-9.2-7.2-17.1-14.5-22.6c-0.2-0.1-0.3-0.2-0.5-0.4c-6.4-4.7-14.2-7.4-22.7-7.4h-64.6h-76.1
	h-41.7h-14.2H748c-8.5,0-16.3,2.8-22.7,7.4c-7.3,5.4-12.7,13.2-14.8,22.3l7.7,0.3c1.9-6.5,5.7-12.1,10.9-16.1
	c5.2-4,11.7-6.5,18.8-6.5h3.3h14.2h37.6h41.1v-3.7h7.4v3.7h35.5h7.6h53.2c3.4,0,6.6,0.7,9.6,1.7c9.7,3.2,17.3,11,20.1,20.9
	c0.8,2.7,1.3,5.5,1.3,8.5c0,0.3-0.1,0.5-0.1,0.7l7.5,0.3c0-0.3,0.1-0.7,0.1-1C986.4,894.5,986.1,891.8,985.5,889.1z"/>
<polygon class="st11" points="851.7,871.2 851.7,866.2 851.7,862.5 844.2,862.5 844.2,866.2 844.2,883 844.2,893.2 851.7,893.5 
	851.7,883.3 "/>
<path class="st12" d="M654.2,1023.5c0-28.5,23.2-51.8,51.8-51.8h120.9c28.5,0,51.8,23.2,51.8,51.8c0,24.8-17.5,45.6-40.9,50.6
	l60.3-0.4V949.8H634.8v125.7l66.2-0.5C674.8,1072.5,654.2,1050.3,654.2,1023.5z"/>
<polygon class="st12" points="464.6,1241.6 464.6,1241.6 472.4,1241.5 472.4,1241.5 "/>
<rect x="608" y="1240.5" transform="matrix(1 -6.813078e-03 6.813078e-03 1 -8.4375 4.237)" class="st12" width="19.3" height="0"/>
<path class="st12" d="M1232.5,1146.3c0.4,2,0.8,4.1,1.2,6.1C1233.3,1150.3,1232.9,1148.3,1232.5,1146.3z"/>
<path class="st12" d="M456.1,950.2c0.5,1.4,0.1,3-1,4c-35.9,33.6-46.7,115.4-47.6,122.8l15.1-0.1c11.6-59,36.9-134.6,90-134.6h99.3
	v133.3l15.5-0.1V942.3h278.2v131.3l68.2-0.5c-21.5-6.3-37.3-26.2-37.3-49.7c0-28.5,23.2-51.8,51.8-51.8h120.9
	c28.5,0,51.8,23.2,51.8,51.8c0,0.9-0.2,1.8-0.2,2.6l0,0c0,0,0,0,0,0c-1.1,21.2-14.9,39-33.9,45.9l83.3-0.6
	c8.7,23.2,16,46.3,20.8,67.6c-3.1-13.6-7-27.8-11.8-42.4c-11-33.6-25.7-68.6-40.7-99.5c-9.3-19-18.6-36.5-27.3-51.1
	c-16.7-28-46.9-45-79.3-44.8l-2.4-0.1l-7.6-0.3l-75.3-2.7l-7.5-0.3l-127.2-4.5l-7.4-0.3l-114.3-4l-11.7-0.4l-7.7-0.3l-74.5-2.6
	l-7.9-0.3l-66.7-2.4c-62.6-5.1-103.7,22.5-130.8,63.1l22,1.4C454.3,947.9,455.6,948.8,456.1,950.2z"/>
<polygon class="st12" points="634.8,1240.4 658.7,1240.2 898.1,1238.6 898.1,1238.6 634.8,1240.4 "/>
<polygon class="st12" points="1100.1,1237.2 1100.1,1237.2 1111.6,1237.2 1111.6,1237.2 "/>
<rect x="905.5" y="1238.4" transform="matrix(0.19 -0.9818 0.9818 0.19 -458.6084 1920.8488)" class="st12" width="58.6" height="0"/>
<path class="st8" d="M604.4,949.8h-91.9c-46.2,0-69.8,67.5-81.5,123.3h173.4V949.8z"/>
<path class="st13" d="M1235.9,1166.5c0-0.2-0.1-0.4-0.1-0.7c-0.6-4.4-1.3-8.9-2.2-13.5c-0.4-2-0.8-4-1.2-6.1c-0.5-2.4-1-4.8-1.6-7.2
	c-4.9-21.3-12.1-44.4-20.8-67.6l-83.3,0.6c-5.5,2-11.4,3.2-17.6,3.2H988.2c-5,0-9.9-0.8-14.5-2.1l-68.2,0.5v163.9v1.1l58.6-0.4
	c0-0.2,0-0.5,0-0.7c0-37.5,30.4-68,68-68c37.5,0,67.8,30.3,68,67.8l11.5-0.1v-9.2h113.2c0,0,0.1-0.1,0.1-0.1
	c0.3-0.2,0.5-0.5,0.7-0.8c1.1-1.2,2.1-2.4,3.1-3.8c0.1-0.2,0.3-0.4,0.5-0.6c1-1.6,2-3.3,2.8-5.1c0.1-0.3,0.3-0.6,0.4-0.9
	c1.6-3.8,2.8-8,3.7-12.6c0.1-0.3,0.1-0.7,0.2-1c0.7-4.6,1.1-9.6,1.1-15c0-0.6,0-1.2,0-1.8c0-2.5-0.1-5-0.3-7.7
	c-0.1-0.9-0.1-1.8-0.2-2.8c0,0,0,0,0,0c-0.1-1.7-0.3-3.4-0.5-5.2C1236.2,1169.2,1236.1,1167.9,1235.9,1166.5z"/>
<path class="st13" d="M464.6,1241.6l7.7-0.1c-0.1-1.3-0.2-2.7-0.2-4c0-37.5,30.4-68,68-68c37.5,0,68,30.4,68,68
	c0,1.1-0.1,2.1-0.2,3.1l19.3-0.1v-3v-162l-15.5,0.1v97.6h-29.1l-0.9-0.6c-12.4-8-26.9-12.2-41.7-12.2c-32.2,0-61.3,20.3-72.4,50.5
	l-0.9,2.4h-53.6l0-67.9c0.2-3.1,2.2-32.8,9.3-68.6l-15.1,0.1c0,0.3-0.1,0.5-0.1,0.6c-0.2,1.9-1.8,3.3-3.7,3.3h-19.4
	c-0.2,0-0.3-0.1-0.5-0.1c-1.8,12.4-3.1,24.5-4,35.8c-1.7,20.9-2.3,39.3-2.4,52.9c-0.1,7,0,12.7,0,16.9c0.1,20.4,10.2,33.3,22,41.6
	h65.3V1241.6z"/>
<path class="st13" d="M420.6,1145.7v60.2h41.1c12.8-31.8,44-53,78.5-53c15.9,0,31.3,4.4,44.8,12.8h19.5v-85.3H429.6
	C422.7,1116,420.7,1145,420.6,1145.7z M547.6,1112.8h9.3v-5.6h29.5v18.6h-29.5v-5.6h-9.3V1112.8z"/>
<path class="st13" d="M837.8,1074.1c-3.5,0.8-7.2,1.2-10.9,1.2H706c-1.7,0-3.3-0.1-5-0.3l-66.2,0.5v162v2.9l263.3-1.8v-1.1v-163.8
	L837.8,1074.1z M688.4,1120.3h-9.3v5.6h-29.5v-18.6h29.5v5.6h9.3V1120.3z"/>
<path class="st8" d="M767,979.1h-1c-0.1,30-22.9,54.6-52.1,57.5c6.7,8.8,10.9,19.5,11.6,31.2h82c0.8-11.7,5-22.4,11.6-31.2
	C789.8,1033.7,767,1009.1,767,979.1z"/>
<path class="st10" d="M828,1040.6c-2.6,0-5.3-0.1-8.2-0.2l0.4-7.4c29.8,1.7,45.6-6.8,51-10.5c-0.6-24-20.2-43.3-44.3-43.3H767
	c0.1,30,22.9,54.6,52.1,57.5c-6.7,8.8-10.9,19.5-11.6,31.2h19.5c21.7,0,39.8-15.7,43.6-36.3C862.7,1035.6,849,1040.6,828,1040.6z"/>
<path class="st10" d="M765.9,979.1H706c-24.1,0-43.7,19.3-44.3,43.3c5.3,3.7,20.9,12.2,51,10.5l0.4,7.4c-2.8,0.2-5.6,0.2-8.2,0.2
	c-21.1,0-34.7-4.9-42.5-9c3.8,20.6,21.9,36.3,43.6,36.3h19.5c-0.8-11.7-5-22.4-11.6-31.2C743,1033.7,765.9,1009.1,765.9,979.1z"/>
<path class="st11" d="M878.7,1023.5c0-28.5-23.2-51.8-51.8-51.8H706c-28.6,0-51.8,23.2-51.8,51.8c0,26.9,20.6,49,46.8,51.5
	c1.6,0.2,3.3,0.3,5,0.3h120.9c3.8,0,7.4-0.4,10.9-1.2C861.1,1069,878.7,1048.3,878.7,1023.5z M826.9,1067.8h-19.5h-82H706
	c-21.7,0-39.8-15.7-43.6-36.3c-5.2-2.8-7.8-5.1-8-5.4l5.2-5.3c0,0,0.7,0.7,2.1,1.6c0.6-24,20.2-43.3,44.3-43.3h59.9h1h59.9
	c24.1,0,43.7,19.3,44.3,43.3c1.4-1,2.1-1.6,2.2-1.6l5.2,5.4c-0.3,0.3-2.8,2.6-8,5.4C866.7,1052.1,848.6,1067.8,826.9,1067.8z"/>
<path class="st11" d="M820.2,1032.9l-0.4,7.4c2.8,0.2,5.6,0.2,8.2,0.2c21.1,0,34.7-4.9,42.5-9c5.2-2.8,7.8-5.1,8-5.4l-5.2-5.4
	c0,0-0.8,0.7-2.2,1.6C865.8,1026.1,850,1034.6,820.2,1032.9z"/>
<path class="st11" d="M713.1,1040.3l-0.4-7.4c-30,1.7-45.7-6.8-51-10.5c-1.4-1-2.1-1.6-2.1-1.6l-5.2,5.3c0.3,0.3,2.8,2.6,8,5.4
	c7.8,4.1,21.4,9,42.5,9C707.5,1040.6,710.2,1040.5,713.1,1040.3z"/>
<path class="st8" d="M1049.2,979.1h-1c-0.1,30-22.9,54.6-52.1,57.5c6.7,8.8,10.9,19.5,11.6,31.2h81.9c0.8-11.7,5-22.4,11.6-31.2
	C1072.1,1033.7,1049.3,1009.1,1049.2,979.1z"/>
<path class="st10" d="M1102.1,1040.3l0.4-7.4c29.8,1.7,45.6-6.8,51-10.5c-0.6-24-20.2-43.3-44.3-43.3h-59.9
	c0.1,30,22.9,54.6,52.1,57.5c-6.7,8.8-10.9,19.5-11.6,31.2h19.5c21.7,0,39.8-15.7,43.6-36.3c-7.8,4.1-21.4,9-42.5,9
	C1107.6,1040.6,1104.9,1040.5,1102.1,1040.3z"/>
<path class="st10" d="M1048.2,979.1h-59.9c-24.1,0-43.7,19.3-44.3,43.3c5.4,3.7,21.2,12.2,51,10.5l0.4,7.4c-2.8,0.2-5.6,0.2-8.2,0.2
	c-21.1,0-34.7-4.9-42.5-9c3.8,20.6,21.9,36.3,43.6,36.3h19.5c-0.8-11.7-5-22.4-11.6-31.2C1025.3,1033.7,1048.1,1009.1,1048.2,979.1z
	"/>
<path class="st11" d="M1109.2,1075.2c6.2,0,12.1-1.1,17.6-3.2c19.1-6.9,32.8-24.8,33.9-45.9c-0.3,0.3-2.9,2.6-8,5.4
	c-3.8,20.6-21.9,36.3-43.6,36.3h-19.5h-81.9h-19.5c-21.7,0-39.8-15.7-43.6-36.3c-5.2-2.8-7.8-5.1-8-5.4l5.2-5.4c0,0,0.8,0.7,2.2,1.6
	c0.6-24,20.2-43.3,44.3-43.3h59.9h1h59.9c24.1,0,43.7,19.3,44.3,43.3c1.4-1,2.1-1.6,2.2-1.6l5.1,5.3c0-0.9,0.2-1.7,0.2-2.6
	c0-28.5-23.2-51.8-51.8-51.8H988.2c-28.5,0-51.8,23.2-51.8,51.8c0,23.5,15.8,43.4,37.3,49.7c4.6,1.4,9.5,2.1,14.5,2.1H1109.2z"/>
<path class="st11" d="M1153.4,1022.4c-5.4,3.7-21.2,12.2-51,10.5l-0.4,7.4c2.8,0.2,5.6,0.2,8.2,0.2c21.1,0,34.7-4.9,42.5-9
	c5.1-2.7,7.7-5.1,8-5.4c0,0,0,0,0,0l0,0l-5.1-5.3C1155.6,1020.8,1154.8,1021.5,1153.4,1022.4z"/>
<path class="st11" d="M995.3,1040.3l-0.4-7.4c-29.8,1.7-45.6-6.8-51-10.5c-1.4-1-2.1-1.6-2.2-1.6l-5.2,5.4c0.3,0.3,2.8,2.6,8,5.4
	c7.8,4.1,21.4,9,42.5,9C989.8,1040.6,992.5,1040.5,995.3,1040.3z"/>
<polygon class="st11" points="634.8,1252.4 634.8,1259.8 645.1,1259.8 898.1,1259.8 898.1,1252.4 647.5,1252.4 "/>
<polygon class="st11" points="634.8,1075.4 634.8,949.8 898.1,949.8 898.1,1073.6 898.1,1237.5 905.5,1237.5 905.5,1073.6 
	905.5,942.3 627.3,942.3 627.3,1075.5 627.3,1237.5 634.8,1237.5 "/>
<polygon class="st11" points="627.3,1259.8 627.3,1280.5 649.5,1280.5 905.5,1280.5 905.5,1259.8 905.5,1238.6 905.5,1238.6 
	905.5,1237.5 898.1,1237.5 898.1,1238.6 898.1,1238.6 898.1,1252.4 898.1,1259.8 898.1,1273.1 646,1273.1 634.8,1273.1 
	634.8,1259.8 634.8,1252.4 634.8,1240.4 634.8,1240.4 634.8,1237.5 627.3,1237.5 627.3,1240.5 627.3,1240.5 "/>
<polygon class="st7" points="664.4,1112.8 679.1,1112.8 679.1,1107.3 649.7,1107.3 649.7,1125.9 679.1,1125.9 679.1,1120.3 
	664.4,1120.3 "/>
<polygon class="st11" points="664.4,1112.8 664.4,1120.3 679.1,1120.3 688.4,1120.3 688.4,1112.8 679.1,1112.8 "/>
<path class="st11" d="M1032.1,1169.5c-37.5,0-68,30.4-68,68c0,0.2,0,0.5,0,0.7l0,0c0.2,18.6,7.8,35.3,20,47.5
	c12.3,12.2,29.2,19.8,47.9,19.8c18.7,0,35.7-7.6,47.9-19.8c12.4-12.3,20-29.4,20-48.2c0-0.1,0-0.2,0-0.2c0,0,0,0,0,0
	C1099.9,1199.8,1069.6,1169.5,1032.1,1169.5z M1032.1,1280.6c-23.8,0-43.1-19.3-43.1-43.1c0-23.8,19.3-43.1,43.1-43.1
	s43.1,19.3,43.1,43.1C1075.2,1261.2,1055.8,1280.6,1032.1,1280.6z"/>
<path class="st11" d="M1032.1,1201.8c-19.7,0-35.6,16-35.6,35.6s16,35.6,35.6,35.6c19.7,0,35.6-16,35.6-35.6
	S1051.7,1201.8,1032.1,1201.8z"/>
<path class="st7" d="M1032.1,1194.4c-23.8,0-43.1,19.3-43.1,43.1c0,23.8,19.3,43.1,43.1,43.1s43.1-19.3,43.1-43.1
	C1075.2,1213.7,1055.8,1194.4,1032.1,1194.4z M1032.1,1273.1c-19.7,0-35.6-16-35.6-35.6s16-35.6,35.6-35.6c19.7,0,35.6,16,35.6,35.6
	S1051.7,1273.1,1032.1,1273.1z"/>
<path class="st11" d="M575.8,1237.5c0-19.7-16-35.6-35.6-35.6c-19.7,0-35.6,16-35.6,35.6s16,35.6,35.6,35.6
	C559.8,1273.1,575.8,1257.1,575.8,1237.5z"/>
<path class="st11" d="M588.1,1285.7c11.7-11.6,19.1-27.5,19.9-45.1v0c0-1,0.2-2.1,0.2-3.1c0-37.5-30.4-68-68-68
	c-37.5,0-68,30.4-68,68c0,1.4,0.1,2.7,0.2,4c0,0,0,0,0,0c1,17.2,8.4,32.7,19.8,44.2c12.3,12.2,29.2,19.8,47.9,19.8
	C558.9,1305.5,575.8,1297.9,588.1,1285.7z M497.1,1237.5c0-23.8,19.3-43.1,43.1-43.1c23.8,0,43.1,19.3,43.1,43.1
	c0,23.8-19.3,43.1-43.1,43.1C516.4,1280.6,497.1,1261.2,497.1,1237.5z"/>
<path class="st7" d="M583.2,1237.5c0-23.8-19.3-43.1-43.1-43.1c-23.8,0-43.1,19.3-43.1,43.1c0,23.8,19.3,43.1,43.1,43.1
	C563.9,1280.6,583.2,1261.2,583.2,1237.5z M504.5,1237.5c0-19.7,16-35.6,35.6-35.6c19.7,0,35.6,16,35.6,35.6s-16,35.6-35.6,35.6
	C520.5,1273.1,504.5,1257.1,504.5,1237.5z"/>
<polygon class="st11" points="1111.6,1237.2 1111.6,1237.2 1111.6,1247 1260.2,1247 1260.2,1227.9 1224.8,1227.9 1111.6,1227.9 "/>
<polygon class="st11" points="464.6,1227.9 399.3,1227.9 369.2,1227.9 369.2,1247 464.6,1247 464.6,1241.6 464.6,1241.6 "/>
<path class="st11" d="M512.5,942.3c-53.1,0-78.4,75.5-90,134.6c-7,35.8-9.1,65.4-9.3,68.6l0,67.9h53.6l0.9-2.4
	c11.1-30.2,40.2-50.5,72.4-50.5c14.8,0,29.2,4.2,41.7,12.2l0.9,0.6h29.1v-97.6V942.3H512.5z M608.1,1076.8v3.7h-3.7v85.3h-19.5
	c-13.4-8.4-28.9-12.8-44.8-12.8c-34.4,0-65.6,21.2-78.5,53h-41.1v-60.2c0-0.7,2.1-29.7,8.9-65.2h-3.1v-7.4h4.6
	c11.6-55.8,35.2-123.3,81.5-123.3h91.9v123.3h3.7V1076.8z"/>
<polygon class="st11" points="431.1,1073.1 426.5,1073.1 426.5,1080.5 429.6,1080.5 604.4,1080.5 608.1,1080.5 608.1,1076.8 
	608.1,1073.1 604.4,1073.1 "/>
<polygon class="st7" points="571.6,1120.3 556.9,1120.3 556.9,1125.9 586.3,1125.9 586.3,1107.3 556.9,1107.3 556.9,1112.8 
	571.6,1112.8 "/>
<polygon class="st11" points="571.6,1120.3 571.6,1112.8 556.9,1112.8 547.6,1112.8 547.6,1120.3 556.9,1120.3 "/>
<path class="st8" d="M444.3,954.7l-17.3-1.1c-0.6,0-1.1-0.3-1.6-0.5c-22,35.5-34,79.6-40.5,120.4h15.5
	C402.5,1057.5,413.1,990.1,444.3,954.7z"/>
<path class="st11" d="M403.7,1080.9c1.9,0,3.5-1.4,3.7-3.3c0,0,0-0.3,0.1-0.6c0.9-7.4,11.8-89.2,47.6-122.8c1.1-1,1.5-2.6,1-4
	c-0.5-1.4-1.8-2.4-3.3-2.5l-22-1.4l-3.3-0.2c-2.1-0.1-3.8,1.4-4,3.5c-0.1,1.4,0.7,2.7,1.8,3.4c0.5,0.3,1,0.5,1.6,0.5l17.3,1.1
	c-31.2,35.5-41.8,102.9-43.9,118.8h-15.5h-0.6c-2.1,0-3.7,1.7-3.7,3.7c0,1.9,1.4,3.4,3.2,3.6c0.2,0,0.3,0.1,0.5,0.1H403.7z"/>
<rect x="1323.6" y="1180.7" class="st11" width="8.1" height="8.8"/>
<rect x="1323.6" y="1197.7" class="st11" width="8.1" height="87.6"/>
<path class="st11" d="M1323.6,1172.5h8.1v-39.4h58.9c0.1-2.7,0.2-5.4,0.3-8.2h-67.4V1172.5z"/>
<polygon class="st11" points="1721.7,1266.8 1721.7,1241.1 1713.6,1241.1 1713.6,1258.6 1596.1,1258.6 1596.1,1241.1 1587.9,1241.1 
	1587.9,1266.8 "/>
<path class="st11" d="M2301.8,1180.7c2.4,0,4.4,2,4.4,4.4c0,2.4-2,4.4-4.4,4.4h-32.1c-0.6,2.8-1.3,5.5-2,8.2h34.1
	c6.9,0,12.6-5.6,12.6-12.6s-5.6-12.6-12.6-12.6h-29.5c-0.3,2.8-0.6,5.5-1,8.2H2301.8z"/>
<path class="st11" d="M1392.5,1197.7c-0.8-2.6-1.5-5.3-1.9-8.2h-58.9h-8.1h-32.2c-2.4,0-4.4-2-4.4-4.4c0-2.4,2-4.4,4.4-4.4h32.2h8.1
	h58.2c0-0.2,0-0.4,0-0.7c0-2.2,0-4.7,0-7.5h-58.2h-8.1h-32.2c-3.2,0-6.1,1.2-8.3,3.2c-2.6,2.3-4.3,5.6-4.3,9.3
	c0,6.9,5.6,12.6,12.6,12.6h32.2h8.1H1392.5z"/>
<path class="st10" d="M1804.2,880.7c0,0.2,0,0.3,0,0.5h176.5c0-0.2,0-0.3,0-0.5c0-6.5-2.6-12.5-6.7-17c-4.7-5.2-11.3-8.5-18.8-8.5
	h-42.5h-12.7h-70.4C1815.7,855.2,1804.2,866.7,1804.2,880.7z"/>
<path class="st12" d="M2116,946.4h-117.5v294.8H2116V946.4z M2057.2,1133.2h-10.2v6.1h-32.3v-20.4h32.3v6.1h10.2V1133.2z
	 M2087,1095.8h-59.6V965.4h59.6V1095.8z"/>
<path class="st12" d="M2124.1,1241.1h94.4c25.9,0,41.4-16.9,49.1-43.5c0.8-2.6,1.4-5.3,2-8.2c0.6-2.8,1.1-5.8,1.6-8.8
	c0.4-2.6,0.7-5.4,1-8.2c7.1-67.7-19.2-170-54-233.6h-94.1V1241.1z M2184.6,1176.6h33.7v17h-33.7V1176.6z"/>
<path class="st12" d="M1465.3,893.1c1.1-0.7,2.3-1.5,3.4-2.1c0,0-0.1,0.1-0.1,0.1C1467.5,891.7,1466.4,892.4,1465.3,893.1z"/>
<path class="st12" d="M1446.7,909.7c1-1.2,2-2.3,3.1-3.4c-0.9,0.9-1.8,1.9-2.6,2.9C1447,909.4,1446.9,909.5,1446.7,909.7z"/>
<path class="st12" d="M1392.2,1103.5c-0.5,7.5-0.9,14.6-1.2,21.5c-0.1,2.8-0.2,5.5-0.3,8.2c-0.6,15.9-0.7,29.4-0.7,39.4
	c0,2.8,0,5.3,0,7.5c0,0.2,0,0.4,0,0.7c0,3.1,0.3,6,0.7,8.8c0.4,2.9,1.1,5.6,1.9,8.2c12,38.2,61.9,43.5,61.9,43.5h133.5h8.1h117.5
	h8.1h99.5c0-35.6,28.9-64.5,64.5-64.5c35.6,0,64.5,28.9,64.5,64.5h31.5h8.6V938.9h-562.4c-7.3,14.5-13.2,30.9-18,48.3
	C1399.6,1025.1,1394.6,1067.4,1392.2,1103.5z M1911.8,1125h38.5v8.2h-38.5V1125z M1911.8,1148.8h38.5v8.2h-38.5V1148.8z
	 M1651.4,965.4h132.4c31.3,0,56.7,25.4,56.7,56.7c0,31.3-25.4,56.7-56.7,56.7h-132.4c-31.3,0-56.7-25.4-56.7-56.7
	C1594.7,990.8,1620.1,965.4,1651.4,965.4z M1484.3,1114.8h130.4v79.5h-130.4V1114.8z M1442.6,1139.3h-34v-20.4h34V1139.3z"/>
<rect x="1492.5" y="1123" class="st12" width="114.1" height="63.2"/>
<path class="st13" d="M1980.8,881.2h-176.5h-13.7h-100.6h-17.8h-79.2h-87.5c-2.1,0-4.1,0.1-6.1,0.3c-0.6,0-1.2,0.1-1.8,0.2
	c-1.4,0.1-2.7,0.3-4.1,0.5c-0.7,0.1-1.3,0.2-2,0.3c-1.3,0.2-2.6,0.5-3.9,0.8c-0.6,0.1-1.2,0.3-1.7,0.4c-1.7,0.5-3.4,1-5,1.5
	c-0.1,0-0.2,0.1-0.4,0.1c-1.8,0.6-3.5,1.4-5.2,2.1c-0.5,0.2-0.9,0.4-1.3,0.7c-1.2,0.6-2.5,1.2-3.7,1.9c-0.5,0.3-1,0.6-1.5,0.9
	c-1.2,0.7-2.3,1.4-3.4,2.1c-0.4,0.3-0.9,0.6-1.3,0.9c-1.4,1-2.9,2-4.2,3.1c-0.1,0.1-0.2,0.1-0.3,0.2c-1.5,1.2-3,2.5-4.5,3.8
	c-0.2,0.2-0.5,0.5-0.7,0.7c0,0-0.1,0.1-0.1,0.1c-1.1,1.1-2.3,2.2-3.4,3.3c-0.4,0.4-0.7,0.8-1.1,1.1c-1,1.1-2.1,2.3-3.1,3.4
	c-0.3,0.4-0.6,0.7-0.9,1.1c-1.2,1.5-2.5,3-3.7,4.6c0,0,0,0.1-0.1,0.1c-1.3,1.7-2.6,3.5-3.8,5.3c-0.1,0.1-0.2,0.3-0.3,0.4
	c-1.1,1.6-2.1,3.3-3.2,5c-0.2,0.4-0.4,0.7-0.7,1.1c-0.9,1.6-1.9,3.1-2.8,4.8c-0.2,0.3-0.4,0.7-0.6,1c-1,1.9-2.1,3.9-3.1,5.9h0.1
	h562.4v-0.7h133.8v0.7h94.1h0c-1.5-2.8-3.1-5.6-4.7-8.2c-18.1-30.7-51.1-49.5-86.8-49.5H2010h-15.2H1980.8z"/>
<path class="st11" d="M1950.3,1241.1c0-35.6-28.9-64.5-64.5-64.5c-35.6,0-64.5,28.9-64.5,64.5c0,16.3,6.1,31.1,16,42.4
	c0.6,0.7,1.3,1.4,1.9,2.1c11.7,12.3,28.3,20,46.6,20c18.4,0,34.9-7.7,46.6-20c0.7-0.8,1.5-1.6,2.2-2.4
	C1944.3,1272,1950.3,1257.3,1950.3,1241.1z M1885.7,1282.6c-22.8,0-41.4-18.6-41.4-41.4c0-22.8,18.6-41.4,41.4-41.4
	c22.8,0,41.4,18.6,41.4,41.4C1927.2,1264,1908.6,1282.6,1885.7,1282.6z"/>
<circle class="st11" cx="1885.7" cy="1241.1" r="33.3"/>
<path class="st7" d="M1885.7,1199.7c-22.8,0-41.4,18.6-41.4,41.4c0,22.8,18.6,41.4,41.4,41.4c22.8,0,41.4-18.6,41.4-41.4
	C1927.2,1218.3,1908.6,1199.7,1885.7,1199.7z M1885.7,1274.4c-18.4,0-33.3-14.9-33.3-33.3s14.9-33.3,33.3-33.3
	c18.4,0,33.3,14.9,33.3,33.3S1904.1,1274.4,1885.7,1274.4z"/>
<rect x="1998.5" y="1257.4" class="st11" width="117.5" height="8.2"/>
<polygon class="st11" points="2124.1,938.2 1990.3,938.2 1990.3,938.9 1990.3,1241.1 1998.5,1241.1 1998.5,946.4 2116,946.4 
	2116,1241.1 2124.1,1241.1 2124.1,938.9 "/>
<polygon class="st11" points="2116,1257.4 2116,1265.6 2116,1280.2 1998.5,1280.2 1998.5,1265.6 1998.5,1257.4 1998.5,1241.1 
	1990.3,1241.1 1990.3,1265.6 1990.3,1285.7 1990.3,1288.3 2124.1,1288.3 2124.1,1285.7 2124.1,1265.6 2124.1,1241.1 2116,1241.1 "/>
<rect x="2035.6" y="973.5" class="st7" width="43.3" height="114.1"/>
<path class="st11" d="M2027.5,1095.8h59.6V965.4h-59.6V1095.8z M2035.6,973.5h43.3v114.1h-43.3V973.5z"/>
<polygon class="st7" points="2030.9,1125 2047.1,1125 2047.1,1118.9 2014.8,1118.9 2014.8,1139.3 2047.1,1139.3 2047.1,1133.2 
	2030.9,1133.2 "/>
<polygon class="st11" points="2030.9,1125 2030.9,1133.2 2047.1,1133.2 2057.2,1133.2 2057.2,1125 2047.1,1125 "/>
<rect x="2184.6" y="1176.6" class="st13" width="33.7" height="17"/>
<rect x="1911.8" y="1125" class="st11" width="38.5" height="8.2"/>
<rect x="1911.8" y="1148.8" class="st11" width="38.5" height="8.2"/>
<path class="st7" d="M1660,1036.5c7.3,9.6,11.9,21.4,12.7,34.2h89.8c0.8-12.8,5.4-24.5,12.7-34.2c-32-3.2-57-30.1-57.1-63h-1.1
	C1717,1006.4,1692,1033.3,1660,1036.5z"/>
<path class="st10" d="M1775.3,1036.5c-7.3,9.6-11.9,21.4-12.7,34.2h21.3c23.8,0,43.6-17.2,47.7-39.7c-8.5,4.5-23.5,9.9-46.5,9.9
	c-2.9,0-5.8-0.1-9-0.3l0.5-8.1c32.6,1.9,49.9-7.5,55.8-11.5c-0.6-26.2-22.1-47.4-48.5-47.4h-65.6
	C1718.3,1006.4,1743.3,1033.3,1775.3,1036.5z"/>
<path class="st10" d="M1651.4,1070.7h21.3c-0.8-12.8-5.4-24.5-12.7-34.2c32-3.2,57-30.1,57.1-63h-65.6c-26.4,0-47.9,21.2-48.5,47.4
	c5.9,4,23.2,13.4,55.8,11.5l0.5,8.1c-3.1,0.2-6.1,0.3-9,0.3c-23.1,0-38-5.4-46.5-9.9C1607.9,1053.5,1627.7,1070.7,1651.4,1070.7z"/>
<path class="st11" d="M1651.4,1078.8h132.4c31.3,0,56.7-25.4,56.7-56.7c0-31.3-25.4-56.7-56.7-56.7h-132.4
	c-31.3,0-56.7,25.4-56.7,56.7C1594.7,1053.4,1620.1,1078.8,1651.4,1078.8z M1594.9,1025l5.7-5.9c0,0,0.8,0.7,2.4,1.8
	c0.6-26.2,22.1-47.4,48.5-47.4h65.6h1.1h65.6c26.4,0,47.9,21.2,48.5,47.4c1.5-1,2.3-1.8,2.4-1.8l5.7,5.9c-0.3,0.3-3.1,2.9-8.8,5.9
	c-4.2,22.6-24,39.7-47.7,39.7h-21.3h-89.8h-21.3c-23.8,0-43.6-17.2-47.7-39.7C1598,1027.9,1595.2,1025.3,1594.9,1025z"/>
<path class="st11" d="M1776.5,1032.4l-0.5,8.1c3.1,0.2,6.1,0.3,9,0.3c23.1,0,38-5.4,46.5-9.9c5.7-3,8.5-5.6,8.8-5.9l-5.7-5.9
	c0,0-0.8,0.7-2.4,1.8C1826.5,1025,1809.2,1034.3,1776.5,1032.4z"/>
<path class="st11" d="M1659.2,1040.6l-0.5-8.1c-32.6,1.9-49.9-7.5-55.8-11.5c-1.5-1-2.3-1.8-2.4-1.8l-5.7,5.9
	c0.3,0.3,3.1,2.9,8.8,5.9c8.5,4.5,23.5,9.9,46.5,9.9C1653.1,1040.8,1656.1,1040.7,1659.2,1040.6z"/>
<path class="st11" d="M1614.7,1114.8h-130.4v79.5h130.4V1114.8z M1606.6,1186.1h-114.1V1123h114.1V1186.1z"/>
<rect x="1408.6" y="1118.9" class="st13" width="34" height="20.4"/>
<polygon class="st10" points="1331.7,1285.3 1323.6,1285.3 1292.9,1285.3 1292.9,1285.7 1292.9,1305.7 1362.5,1305.7 1362.5,1285.7 
	1362.5,1285.3 "/>
<path class="st14" d="M584.1,107.5C716,233.5,812.8,93.4,812.8,0H0v337.4c226.2,0,74.3-192.2,183.9-277
	C252.6,7.3,471.8,0,584.1,107.5z"/>
<path class="st14" d="M963.9,138c23.1,0,41.9-18.8,41.9-41.9c0-23.1-18.7-41.9-41.9-41.9C940.7,54.3,922,73,922,96.1
	C922,119.3,940.7,138,963.9,138z"/>
<path class="st14" d="M71.4,398.5c-23.1,0-41.9,18.8-41.9,41.9c0,23.1,18.7,41.9,41.9,41.9c23.1,0,41.9-18.8,41.9-41.9
	C113.3,417.2,94.5,398.5,71.4,398.5z"/>
<circle class="st14" cx="1172.5" cy="138" r="79.5"/>
<ellipse transform="matrix(0.9904 -0.1382 0.1382 0.9904 -19.6116 46.7156)" class="st14" cx="326.6" cy="164.6" rx="79.5" ry="79.5"/>
<path class="st14" d="M2515.7,1648.8c-52.2,40.4-218.8,45.9-304.2-35.8c-100.2-95.8-173.8,10.7-173.8,81.7h617.8v-256.4
	C2483.5,1438.3,2598.9,1584.4,2515.7,1648.8z"/>
<ellipse transform="matrix(0.9726 -0.2324 0.2324 0.9726 -324.2582 491.36)" class="st14" cx="1922.9" cy="1621.6" rx="31.8" ry="31.8"/>
<path class="st14" d="M2601.1,1391.8c17.6,0,31.8-14.3,31.8-31.8c0-17.6-14.3-31.8-31.8-31.8c-17.6,0-31.8,14.3-31.8,31.8
	C2569.3,1377.6,2583.6,1391.8,2601.1,1391.8z"/>
<ellipse transform="matrix(2.482396e-02 -0.9997 0.9997 2.482396e-02 131.2449 3314.0889)" class="st14" cx="1764.3" cy="1589.8" rx="60.5" ry="60.4"/>
<ellipse transform="matrix(0.9749 -0.2224 0.2224 0.9749 -288.8188 574.754)" class="st14" cx="2407.2" cy="1569.6" rx="60.5" ry="60.5"/>
</svg>
