<?xml version="1.0" standalone="no"?>
<!DOCTYPE svg PUBLIC "-//W3C//DTD SVG 20010904//EN"
 "http://www.w3.org/TR/2001/REC-SVG-20010904/DTD/svg10.dtd">
<svg version="1.0" xmlns="http://www.w3.org/2000/svg"
 width="1728.000000pt" height="1728.000000pt" viewBox="0 0 1728.000000 1728.000000"
 preserveAspectRatio="xMidYMid meet">
<metadata>
Created by potrace 1.14, written by Peter Selinger 2001-2017
</metadata>
<g transform="translate(0.000000,1728.000000) scale(0.100000,-0.100000)"
fill="#000000" stroke="none">
<path d="M8790 13401 c-20 -13 -23 -14 -15 -1 7 13 6 13 -7 2 -12 -10 -17 -10
-20 -1 -3 9 -9 9 -26 0 -15 -8 -22 -8 -22 -1 0 7 -6 7 -21 0 -11 -7 -23 -9
-26 -6 -3 3 -15 -1 -27 -9 -27 -20 -36 -19 -36 3 0 14 -2 15 -10 2 -5 -8 -10
-10 -10 -5 0 6 -5 3 -10 -5 -9 -13 -10 -13 -10 0 0 13 -1 13 -10 0 -5 -8 -10
-10 -10 -4 0 6 -6 11 -12 12 -7 0 -23 3 -36 6 -12 3 -20 1 -17 -3 3 -5 -2 -11
-10 -15 -8 -3 -15 -1 -15 5 0 6 -8 5 -21 -2 -15 -8 -19 -8 -15 0 4 6 4 11 1
11 -4 0 -16 -5 -27 -11 -15 -8 -19 -8 -14 0 10 15 -7 14 -23 -1 -11 -10 -13
-10 -7 0 5 8 1 12 -11 12 -11 0 -25 -6 -32 -12 -9 -8 -11 -8 -8 -2 4 7 0 15
-9 18 -8 3 -12 2 -9 -4 3 -6 2 -10 -4 -10 -5 0 -12 6 -14 13 -3 6 -6 3 -6 -7
-1 -20 -1 -20 -17 0 -8 10 -13 13 -9 7 4 -8 0 -13 -10 -13 -11 0 -15 5 -11 16
3 8 2 12 -4 9 -6 -3 -10 -14 -10 -23 0 -10 -3 -13 -8 -7 -8 13 -22 13 -41 1
-10 -6 -12 -5 -7 2 9 16 -7 15 -22 0 -9 -9 -12 -9 -12 0 0 7 -5 12 -11 12 -5
0 -8 -4 -4 -9 8 -14 -117 -12 -134 2 -10 8 -12 8 -8 1 4 -7 -2 -11 -18 -11
-14 0 -25 4 -25 9 0 5 -9 6 -20 3 -13 -4 -20 -2 -20 7 -1 9 -4 7 -10 -4 -6
-10 -18 -14 -31 -11 -16 4 -17 8 -7 14 9 6 9 9 1 9 -7 0 -17 -8 -22 -17 -8
-15 -11 -15 -12 -3 -1 8 0 20 1 25 1 6 -10 -1 -23 -13 -24 -23 -26 -23 -36 -5
-10 17 -10 17 -11 -2 0 -15 -2 -17 -9 -6 -5 8 -11 9 -15 3 -3 -6 -16 -8 -28
-4 -16 4 -19 2 -13 -8 6 -9 4 -11 -5 -5 -7 4 -16 2 -22 -6 -8 -11 -9 -10 -4 3
3 10 1 20 -4 23 -6 4 -10 -1 -10 -10 0 -13 -4 -14 -22 -4 -18 10 -20 9 -15 -4
4 -11 2 -14 -8 -10 -8 3 -12 10 -8 16 4 6 1 7 -8 1 -20 -12 -40 -14 -33 -2 4
6 -2 8 -16 3 -15 -5 -20 -4 -16 4 5 8 0 8 -19 1 -15 -6 -31 -8 -36 -4 -5 3 -9
0 -9 -7 0 -8 -4 -8 -15 1 -12 10 -15 9 -15 -6 0 -17 -1 -17 -16 2 -8 10 -13
14 -10 7 4 -6 2 -14 -4 -18 -5 -3 -10 -1 -10 6 0 10 -3 10 -11 2 -6 -6 -18 -9
-25 -6 -8 3 -14 -1 -14 -8 0 -11 -3 -11 -10 1 -8 12 -10 12 -11 -5 l0 -20 -9
20 c-5 11 -9 14 -9 8 -1 -7 -6 -13 -12 -13 -5 0 -7 5 -3 11 4 8 0 8 -15 0 -16
-9 -21 -9 -21 1 -1 8 -7 5 -15 -6 -13 -18 -19 -15 -16 6 0 4 -6 5 -14 2 -8 -4
-13 -9 -10 -13 2 -4 -2 -8 -10 -8 -8 0 -12 5 -8 10 3 5 -4 4 -16 -2 -12 -7
-25 -10 -29 -7 -4 3 -14 1 -22 -4 -10 -6 -21 -3 -35 8 -18 16 -19 16 -6 0 12
-16 10 -16 -17 -9 -20 6 -34 5 -42 -2 -8 -8 -11 -8 -7 -1 3 6 0 11 -7 11 -8 0
-12 -6 -9 -14 3 -7 0 -13 -6 -13 -6 0 -11 5 -11 11 0 8 -4 8 -13 0 -8 -6 -23
-9 -35 -6 -12 2 -25 -1 -28 -7 -4 -6 -2 -8 4 -4 6 3 13 2 17 -3 6 -11 -27 -7
-47 5 -7 4 -8 3 -4 -4 4 -7 1 -12 -9 -12 -10 0 -13 -5 -9 -12 4 -7 -3 -4 -16
7 -13 11 -20 15 -17 8 4 -6 3 -14 -3 -18 -5 -3 -10 -2 -10 2 0 5 -9 9 -19 9
-11 0 -17 -4 -14 -9 3 -5 -4 -6 -15 -3 -14 5 -24 1 -31 -11 -10 -17 -10 -17
-11 2 0 11 -4 16 -8 10 -4 -5 -11 -11 -17 -11 -5 -1 -20 -5 -32 -9 -14 -4 -23
-2 -23 4 0 6 -5 11 -11 11 -6 0 -9 -7 -6 -15 5 -11 1 -12 -18 -5 -18 7 -25 5
-30 -8 -3 -9 -9 -12 -13 -7 -9 13 -35 18 -27 5 3 -5 1 -10 -4 -10 -6 0 -11 6
-11 13 0 9 -2 9 -8 0 -4 -7 -18 -11 -30 -8 -12 2 -24 -1 -27 -6 -4 -5 -10 -7
-15 -4 -4 3 -11 -2 -14 -11 -5 -13 -9 -14 -21 -4 -9 7 -15 8 -15 2 0 -5 -9 -8
-20 -5 -13 3 -20 0 -20 -8 0 -11 -2 -11 -10 1 -6 10 -10 11 -10 3 0 -7 -9 -13
-21 -13 -11 0 -18 4 -15 8 2 4 -4 9 -15 9 -11 1 -17 -2 -14 -7 6 -10 -21 -7
-31 3 -4 4 -14 1 -22 -6 -13 -10 -14 -9 -7 3 8 13 6 13 -8 1 -9 -7 -23 -11
-31 -8 -8 3 -16 1 -18 -5 -2 -6 -15 -13 -29 -15 -19 -2 -21 -1 -9 7 9 6 10 10
3 10 -6 0 -14 -4 -17 -8 -4 -7 -46 -13 -103 -15 -12 -1 -20 -5 -17 -9 3 -4 -9
-6 -25 -4 -17 2 -31 -1 -31 -6 0 -5 -13 -7 -29 -3 -17 3 -32 2 -36 -5 -3 -5
-10 -8 -15 -5 -5 3 -12 1 -15 -5 -5 -8 -11 -8 -20 0 -9 8 -17 7 -28 -5 -12
-11 -17 -12 -20 -2 -4 8 -8 8 -14 2 -13 -16 -34 -17 -51 -3 -12 10 -14 10 -8
1 5 -10 -3 -13 -29 -13 -24 0 -34 -4 -29 -11 5 -8 1 -8 -14 0 -26 14 -42 14
-22 0 12 -8 7 -9 -17 -6 -18 2 -33 0 -33 -3 0 -4 -10 -6 -22 -6 -13 1 -29 -2
-35 -7 -7 -5 -20 -7 -28 -3 -8 3 -15 1 -15 -5 0 -6 -6 -9 -14 -6 -8 3 -17 1
-20 -6 -3 -9 -5 -9 -5 1 -1 6 -6 12 -12 12 -5 0 -7 -4 -4 -10 3 -6 -1 -7 -9
-4 -10 4 -16 1 -16 -7 0 -11 -3 -11 -10 1 -6 9 -10 11 -10 3 0 -7 -7 -10 -15
-7 -9 4 -15 0 -15 -7 0 -11 -2 -11 -9 0 -8 12 -12 12 -24 2 -9 -7 -21 -11 -29
-10 -28 3 -39 -1 -32 -13 5 -9 2 -9 -9 1 -9 7 -17 9 -17 4 0 -5 -12 -10 -27
-11 -15 -1 -30 -8 -35 -15 -4 -6 -8 -7 -8 -2 0 6 -13 11 -29 10 -16 0 -27 -3
-24 -7 2 -5 -1 -8 -7 -8 -6 0 -8 -5 -4 -12 5 -7 3 -8 -6 -3 -20 13 -58 12 -53
0 2 -7 -8 -10 -26 -9 -16 1 -32 -4 -34 -10 -3 -8 -17 -11 -35 -8 -16 2 -33 -1
-36 -7 -10 -15 -29 -14 -21 2 4 6 -3 1 -15 -13 -12 -14 -19 -19 -15 -12 8 15
-21 16 -31 1 -4 -8 -9 -7 -15 2 -7 11 -9 11 -9 1 0 -8 -9 -11 -25 -8 -13 3
-28 0 -31 -6 -5 -7 -2 -8 6 -3 8 5 11 4 6 -3 -4 -6 -13 -9 -21 -5 -9 3 -26 -2
-39 -10 -17 -11 -26 -13 -34 -5 -8 8 -15 8 -25 0 -10 -9 -16 -9 -25 0 -9 9
-12 9 -12 -1 0 -11 -3 -11 -15 -1 -13 11 -14 10 -10 -2 5 -12 0 -15 -23 -12
-18 2 -35 -3 -42 -11 -10 -12 -16 -13 -26 -4 -9 7 -14 8 -14 1 0 -5 -9 -8 -21
-5 -12 3 -25 0 -29 -7 -4 -7 -25 -14 -46 -15 -23 -1 -39 -6 -39 -13 0 -7 -4
-11 -10 -9 -5 1 -9 5 -8 10 2 4 -2 7 -7 7 -6 0 -10 -4 -10 -9 0 -5 -11 -8 -25
-6 -14 1 -33 -4 -42 -12 -10 -8 -12 -11 -4 -7 9 4 12 3 7 -4 -5 -8 -15 -8 -32
-2 -17 7 -23 7 -19 0 5 -9 -15 -15 -37 -11 -5 0 -8 -4 -8 -9 0 -6 -8 -10 -17
-8 -11 2 -17 -2 -15 -11 3 -12 0 -12 -12 -1 -15 12 -20 8 -17 -15 1 -5 -5 -2
-13 8 -13 17 -14 16 -19 -3 -3 -13 -10 -18 -21 -14 -10 4 -16 1 -16 -7 -1 -9
-6 -7 -17 6 -9 12 -14 14 -11 5 4 -10 -3 -20 -17 -26 -19 -9 -22 -9 -18 3 3 8
-7 3 -22 -11 -15 -14 -33 -26 -39 -26 -6 0 -4 5 4 10 12 8 10 10 -8 10 -13 0
-21 -4 -18 -9 3 -5 -1 -12 -10 -15 -10 -4 -13 -2 -8 7 5 9 4 9 -7 0 -7 -7 -21
-13 -32 -13 -10 0 -16 -4 -13 -8 3 -5 -11 -8 -31 -7 -20 0 -42 -5 -49 -13 -8
-7 -14 -9 -14 -4 0 11 -40 8 -48 -4 -4 -5 -14 -9 -22 -9 -19 1 -40 -17 -33
-28 3 -5 -4 -4 -15 2 -13 7 -23 7 -27 2 -3 -6 -14 -8 -25 -6 -14 3 -17 -1 -13
-12 5 -13 0 -15 -24 -11 -22 3 -30 1 -26 -8 5 -14 -14 -13 -36 0 -11 7 -13 5
-8 -6 3 -10 0 -15 -11 -14 -9 0 -16 -5 -14 -12 1 -8 -2 -11 -8 -7 -6 3 -8 11
-5 16 8 13 3 12 -44 -9 -22 -10 -38 -23 -33 -28 4 -4 0 -3 -10 4 -13 11 -19
10 -30 -7 -8 -12 -18 -18 -21 -14 -4 3 -7 1 -7 -5 0 -7 -12 -12 -26 -12 -14 0
-23 -4 -19 -10 3 -5 2 -10 -4 -10 -5 0 -12 6 -14 13 -3 7 -6 5 -6 -5 -1 -10
-7 -15 -14 -12 -8 3 -26 -8 -42 -23 -16 -15 -25 -22 -20 -14 6 11 3 13 -16 7
-13 -4 -29 -8 -36 -8 -7 -1 -10 -4 -8 -8 2 -3 -5 -12 -17 -19 -13 -8 -18 -9
-13 -1 5 8 0 7 -13 -1 -12 -7 -19 -16 -16 -20 2 -5 -5 -6 -16 -4 -11 2 -20 -1
-20 -7 0 -5 -7 -7 -15 -4 -9 3 -18 -1 -21 -9 -4 -8 -10 -12 -15 -9 -5 3 -9 0
-9 -5 0 -6 -9 -11 -21 -11 -11 0 -18 -4 -15 -9 3 -5 -1 -12 -10 -15 -23 -9
-26 -8 -18 7 6 9 5 9 -8 0 -8 -7 -18 -10 -22 -6 -4 4 -4 -1 0 -11 5 -14 4 -17
-5 -12 -7 5 -18 0 -27 -10 -9 -11 -13 -13 -9 -6 3 6 2 12 -3 12 -6 0 -13 -7
-16 -16 -4 -10 -12 -14 -22 -10 -11 4 -15 2 -11 -8 4 -10 1 -13 -9 -9 -7 3
-14 1 -14 -5 0 -5 -6 -10 -12 -9 -32 1 -49 -4 -44 -12 6 -9 -15 -21 -49 -28
-11 -2 -21 -8 -23 -13 -2 -6 -11 -6 -23 0 -15 9 -17 8 -12 -7 5 -13 3 -15 -11
-10 -11 5 -15 3 -10 -5 5 -7 2 -9 -8 -5 -10 3 -19 -3 -27 -20 -10 -22 -14 -23
-28 -12 -14 12 -16 12 -8 0 6 -11 4 -13 -8 -8 -10 4 -16 2 -14 -5 1 -7 -5 -13
-13 -13 -25 -2 -50 -17 -44 -26 3 -5 -3 -6 -12 -2 -13 5 -15 3 -9 -7 6 -9 4
-11 -4 -6 -7 5 -20 1 -29 -6 -29 -25 -46 -33 -38 -17 4 8 0 5 -8 -5 -9 -11
-16 -16 -16 -11 0 5 -7 0 -16 -11 -8 -10 -13 -13 -9 -6 8 16 -3 15 -20 -2 -8
-7 -11 -17 -7 -21 4 -5 2 -5 -5 -1 -6 3 -15 1 -19 -5 -4 -8 -9 -7 -15 2 -7 11
-9 10 -9 -3 0 -10 -7 -18 -16 -18 -9 0 -12 -5 -8 -12 6 -10 5 -10 -7 -2 -11 9
-17 9 -26 -1 -6 -7 -9 -17 -5 -21 4 -5 -1 -2 -11 6 -16 11 -18 11 -15 -1 2 -9
-4 -13 -16 -11 -10 2 -15 -1 -12 -6 3 -6 -1 -13 -10 -16 -10 -4 -13 -2 -9 7 4
6 -2 1 -13 -13 -12 -14 -24 -21 -28 -18 -4 4 -18 -4 -31 -18 -13 -14 -23 -19
-23 -12 0 10 -2 10 -9 -1 -5 -8 -14 -10 -22 -5 -12 6 -11 5 0 -9 12 -16 12
-17 -5 -11 -10 4 -16 4 -12 -1 4 -4 -15 -19 -42 -33 -28 -14 -50 -30 -50 -34
0 -5 -5 -6 -10 -3 -6 3 -13 0 -16 -9 -3 -8 -19 -18 -35 -21 -16 -4 -29 -10
-29 -13 0 -9 -50 -32 -68 -32 -8 0 -12 -6 -9 -14 4 -10 0 -14 -14 -11 -10 2
-19 0 -19 -6 0 -5 -7 -9 -15 -9 -8 0 -15 -4 -15 -9 0 -5 -9 -11 -21 -14 -14
-4 -18 -10 -13 -19 6 -11 5 -11 -8 0 -12 10 -17 10 -27 -1 -6 -8 -8 -17 -4
-20 3 -4 -1 -7 -10 -7 -9 0 -17 -7 -17 -16 0 -10 -5 -14 -16 -10 -8 3 -12 2
-9 -4 3 -6 -1 -13 -9 -16 -9 -3 -13 -10 -10 -15 3 -5 -2 -9 -11 -9 -8 0 -18
-8 -22 -17 -7 -22 -100 -113 -114 -113 -6 0 -7 -5 -3 -12 5 -8 2 -9 -9 -5 -11
4 -17 1 -17 -8 0 -7 -5 -17 -12 -21 -7 -5 -8 -3 -3 6 6 9 4 11 -4 6 -7 -5 -10
-14 -7 -22 3 -8 0 -11 -10 -7 -9 3 -14 0 -12 -8 2 -8 -3 -13 -10 -11 -6 1 -12
-5 -12 -13 0 -13 -11 -19 -31 -17 -4 1 -6 -6 -5 -16 0 -9 -4 -16 -10 -15 -7 1
-17 -11 -24 -28 -10 -24 -15 -27 -27 -17 -8 6 -13 7 -12 2 3 -20 -1 -47 -8
-41 -10 10 -35 -31 -27 -45 4 -7 3 -8 -4 -4 -8 4 -16 -3 -22 -18 -5 -14 -14
-26 -20 -26 -5 0 -9 -6 -8 -12 2 -7 -3 -12 -11 -10 -12 3 -12 1 -1 -15 8 -10
11 -15 6 -11 -4 4 -14 1 -21 -5 -10 -9 -10 -16 -2 -27 6 -8 8 -12 3 -8 -9 7
-29 -15 -54 -61 -8 -13 -9 -20 -4 -17 12 7 10 -20 -3 -31 -4 -4 -5 -2 0 6 5 9
3 12 -6 9 -8 -3 -13 -14 -13 -26 1 -12 -2 -19 -7 -16 -5 2 -11 -7 -15 -21 -3
-14 -16 -32 -27 -40 -15 -11 -17 -15 -7 -16 8 0 4 -5 -10 -11 -14 -6 -20 -12
-13 -15 9 -3 7 -11 -7 -25 -14 -16 -17 -26 -10 -39 7 -12 6 -20 -2 -25 -7 -4
-8 -3 -4 4 4 7 2 12 -3 12 -11 0 -15 -13 -12 -38 1 -7 -5 -15 -14 -19 -13 -4
-14 -8 -4 -14 11 -6 10 -9 -3 -14 -9 -4 -14 -13 -11 -21 3 -8 0 -14 -7 -14 -6
0 -10 -5 -8 -12 2 -6 -4 -20 -15 -31 -10 -10 -16 -25 -13 -32 3 -10 0 -12 -12
-8 -14 6 -15 4 -5 -8 9 -11 7 -19 -13 -38 -13 -13 -24 -32 -24 -42 0 -10 -5
-19 -11 -19 -5 0 -7 -4 -4 -10 3 -5 1 -10 -6 -10 -9 0 -9 -4 1 -15 10 -12 8
-13 -10 -10 -18 3 -20 2 -10 -10 8 -10 9 -15 2 -15 -6 0 -9 -9 -7 -21 3 -14 0
-19 -9 -16 -10 4 -12 -1 -8 -15 2 -11 -1 -24 -8 -28 -7 -5 -14 -27 -14 -49 0
-23 -3 -41 -6 -41 -6 0 -10 -25 -13 -67 -1 -16 -4 -19 -13 -12 -8 7 -10 2 -6
-17 3 -18 1 -25 -6 -20 -6 3 -9 -1 -7 -11 3 -22 -13 -55 -24 -49 -4 3 -7 -9
-7 -27 1 -23 -3 -31 -14 -29 -11 2 -11 -1 3 -12 16 -13 16 -14 -4 -19 -18 -5
-20 -9 -10 -20 9 -12 8 -16 -3 -20 -9 -4 -12 -14 -9 -26 3 -13 1 -21 -6 -21
-7 0 -9 -5 -5 -12 5 -8 2 -9 -9 -5 -16 6 -15 4 0 -20 10 -15 13 -24 8 -21 -6
4 -17 -3 -25 -15 -12 -21 -12 -21 5 -7 17 14 18 14 6 -8 -7 -13 -17 -20 -24
-15 -8 4 -8 2 1 -9 10 -12 10 -18 1 -23 -8 -6 -7 -10 2 -16 10 -6 10 -9 2 -9
-7 0 -10 -7 -7 -15 4 -8 1 -15 -5 -15 -6 0 -11 -5 -11 -11 0 -5 6 -7 13 -3 9
6 9 4 0 -7 -7 -7 -13 -23 -13 -36 0 -15 -6 -23 -17 -23 -15 0 -16 -2 -3 -10 8
-5 11 -10 6 -10 -5 0 -2 -8 5 -17 10 -11 10 -14 1 -9 -8 5 -12 -1 -12 -19 0
-14 -4 -24 -9 -21 -8 5 -8 -15 -1 -34 1 -3 1 -9 0 -15 -2 -5 -4 -26 -6 -45 -1
-19 -3 -38 -3 -42 -1 -5 -6 -8 -12 -8 -8 0 -7 6 2 18 13 15 12 16 -4 3 -13
-10 -15 -17 -6 -27 9 -11 8 -18 -2 -31 -12 -14 -12 -15 -1 -9 11 7 12 4 3 -11
-6 -11 -7 -23 -4 -27 3 -3 1 -6 -5 -6 -6 0 -9 -9 -7 -20 2 -11 -1 -22 -6 -26
-6 -3 -5 -12 3 -22 11 -14 10 -15 -6 -9 -16 6 -17 5 -6 -8 8 -10 9 -15 1 -15
-6 0 -11 -5 -11 -11 0 -5 5 -7 10 -4 6 3 10 1 10 -4 0 -6 -5 -11 -10 -11 -7 0
-7 -7 1 -21 8 -16 8 -20 -1 -14 -7 5 -11 1 -10 -11 4 -39 0 -55 -13 -48 -9 5
-9 4 0 -6 10 -11 9 -16 -5 -27 -9 -8 -12 -12 -5 -9 6 4 14 2 18 -4 3 -5 1 -10
-4 -10 -6 0 -11 -5 -11 -11 0 -5 6 -7 13 -4 6 4 4 0 -5 -8 -13 -10 -15 -16 -6
-25 9 -9 9 -12 0 -12 -6 0 -9 -7 -6 -15 4 -9 0 -15 -7 -15 -11 0 -11 -3 1 -10
11 -7 12 -10 2 -10 -9 0 -12 -10 -10 -27 1 -16 -2 -27 -8 -26 -8 1 -9 -11 -4
-37 4 -24 3 -38 -3 -37 -5 1 -12 -4 -15 -12 -2 -8 0 -11 5 -8 18 11 6 -56 -12
-70 -17 -12 -18 -13 -1 -13 10 0 14 -5 10 -11 -3 -6 0 -15 7 -20 11 -7 11 -9
-3 -9 -9 0 -20 -5 -24 -12 -4 -6 -3 -8 3 -5 6 4 13 -2 16 -13 8 -31 8 -35 -2
-35 -5 0 -13 -3 -17 -7 -4 -5 1 -8 11 -8 18 0 18 -1 -1 -16 -10 -8 -14 -13 -8
-10 7 3 15 -1 18 -10 3 -8 2 -12 -3 -9 -5 3 -12 1 -16 -5 -3 -5 2 -10 12 -10
17 -1 17 -1 1 -11 -22 -12 -24 -29 -4 -29 15 0 16 -16 3 -38 -5 -7 -2 -15 8
-18 13 -6 14 -8 3 -15 -11 -7 -11 -9 1 -9 11 0 11 -3 0 -17 -10 -11 -10 -14
-1 -9 6 4 12 3 12 -3 0 -5 -5 -13 -10 -16 -8 -5 -7 -11 1 -21 8 -10 8 -14 0
-14 -6 0 -11 -5 -11 -11 0 -6 7 -8 18 -4 14 5 15 4 5 -6 -15 -15 -17 -33 -4
-24 6 3 6 -6 1 -24 -4 -16 -6 -32 -3 -35 10 -10 8 -106 -2 -106 -5 0 -4 -4 3
-8 8 -5 10 -16 6 -27 -5 -13 -4 -16 5 -10 11 6 11 3 1 -16 -10 -17 -10 -24 -1
-27 6 -2 11 -8 11 -13 0 -6 -3 -8 -7 -6 -5 3 -9 -6 -9 -19 -1 -15 2 -21 10
-17 6 4 5 0 -2 -9 -9 -11 -10 -18 -2 -23 6 -4 7 -12 0 -24 -6 -12 -5 -22 3
-31 9 -10 9 -11 0 -6 -7 4 -13 2 -13 -3 0 -6 5 -11 12 -11 9 0 9 -3 0 -12 -7
-7 -12 -17 -12 -23 0 -5 5 -3 11 5 8 11 9 7 6 -18 -2 -18 1 -36 6 -39 6 -4 7
-1 2 7 -5 8 -4 11 3 6 6 -4 9 -13 5 -21 -3 -9 0 -21 6 -28 6 -8 9 -23 6 -35
-3 -15 1 -22 13 -23 10 0 12 -3 5 -6 -9 -3 -10 -10 -3 -23 5 -9 7 -27 5 -39
-2 -12 0 -19 6 -16 10 7 12 -6 9 -42 -1 -13 4 -23 11 -23 9 0 8 -4 -1 -15 -9
-11 -9 -15 -1 -15 7 0 10 -4 7 -9 -3 -4 1 -17 8 -27 10 -13 11 -23 4 -31 -7
-9 -7 -13 3 -13 10 0 10 -3 2 -11 -9 -9 -7 -18 5 -38 16 -25 16 -26 -2 -11
-19 15 -19 14 -2 -17 9 -18 14 -33 11 -33 -4 0 1 -7 9 -16 9 -8 14 -20 11 -25
-4 -5 -2 -9 4 -9 5 0 8 -9 6 -20 -2 -13 2 -20 11 -20 8 0 13 -4 9 -9 -3 -5 2
-16 10 -24 11 -12 12 -17 2 -20 -9 -4 -9 -6 1 -6 7 -1 10 -5 7 -11 -3 -5 -1
-10 5 -10 7 0 8 -6 1 -18 -7 -14 -6 -25 5 -40 8 -12 12 -22 8 -22 -4 0 1 -10
12 -22 10 -12 13 -18 7 -14 -7 4 -13 3 -13 -3 0 -5 9 -13 21 -16 15 -5 17 -10
9 -20 -7 -9 -6 -16 5 -25 8 -7 15 -19 15 -27 0 -8 4 -12 9 -9 4 3 6 -6 3 -19
-2 -15 0 -25 7 -25 6 0 11 -9 11 -21 0 -11 5 -17 10 -14 6 4 10 -5 10 -20 0
-16 4 -24 11 -19 8 5 8 1 0 -14 -6 -12 -7 -23 -2 -26 5 -3 8 -19 7 -36 -1 -16
2 -30 7 -30 4 0 5 -4 2 -10 -3 -5 2 -10 12 -11 11 0 13 -3 5 -6 -10 -4 -9 -9
5 -20 10 -8 12 -12 5 -8 -7 4 -12 0 -12 -10 0 -10 5 -13 12 -9 8 5 9 2 5 -9
-3 -10 -2 -17 4 -17 6 0 7 -4 4 -10 -3 -5 -1 -10 5 -10 6 0 9 -4 6 -9 -4 -5
-1 -11 5 -13 7 -2 13 -19 16 -38 2 -19 8 -37 14 -41 6 -3 10 -9 10 -13 -3 -20
0 -26 9 -21 5 3 7 0 4 -8 -3 -8 1 -21 8 -28 7 -8 15 -23 16 -34 2 -11 9 -23
15 -27 7 -4 9 -8 5 -8 -10 0 12 -60 23 -60 4 0 5 -7 2 -17 -4 -10 -2 -14 4
-10 6 4 14 0 17 -9 3 -8 2 -12 -4 -9 -6 3 -10 1 -10 -4 0 -6 5 -11 11 -11 5 0
7 -5 4 -10 -3 -6 -1 -10 6 -10 7 0 10 -3 6 -6 -3 -4 2 -14 11 -23 10 -9 13
-14 7 -11 -6 3 -3 -2 7 -12 10 -9 18 -21 18 -28 0 -6 6 -8 13 -4 6 4 9 4 5 -1
-4 -4 -2 -15 5 -23 9 -13 9 -14 0 -8 -9 5 -11 2 -7 -8 3 -9 9 -14 13 -12 4 3
13 -5 21 -17 12 -21 12 -21 -5 -7 -18 14 -18 13 0 -11 11 -15 24 -24 29 -21 5
3 7 -2 3 -11 -3 -9 -2 -19 4 -23 6 -3 8 -13 4 -21 -4 -13 -3 -14 9 -4 12 10
13 9 9 -8 -3 -12 -1 -21 6 -21 6 0 11 -7 11 -16 0 -19 24 -44 42 -44 10 0 9
-3 -2 -10 -13 -8 -12 -10 3 -10 9 0 17 -7 17 -15 0 -8 5 -15 10 -15 6 0 10 -8
10 -19 0 -10 10 -26 23 -35 12 -9 16 -14 10 -11 -8 4 -11 1 -7 -9 3 -9 11 -14
17 -13 6 1 12 -4 13 -10 1 -7 2 -18 3 -24 0 -5 6 -7 11 -4 6 3 10 1 10 -5 0
-6 4 -9 9 -5 6 3 8 -4 6 -15 -2 -11 0 -18 5 -15 15 9 50 -14 50 -32 0 -13 3
-13 18 -2 9 7 14 10 10 5 -9 -11 42 -67 55 -59 6 4 8 0 4 -10 -4 -12 -2 -14
10 -10 11 4 14 2 9 -5 -4 -8 0 -12 11 -12 15 0 16 -2 3 -10 -12 -8 -11 -10 7
-10 12 0 28 -9 36 -20 8 -11 17 -17 21 -13 4 4 4 -1 0 -12 -6 -14 -4 -17 9
-12 9 3 16 3 15 -1 -4 -11 35 -52 44 -46 4 3 5 -3 1 -12 -3 -10 -2 -15 3 -12
11 6 55 -37 47 -46 -4 -3 4 -6 16 -6 12 0 19 -4 16 -10 -3 -6 3 -10 14 -10 12
0 21 -4 21 -9 0 -6 9 -8 20 -6 11 2 23 -1 26 -7 5 -7 2 -8 -7 -3 -8 5 -11 4
-6 0 8 -9 39 -17 74 -19 17 -1 19 -4 10 -15 -9 -12 -9 -13 0 -7 8 4 13 2 13
-5 0 -8 4 -8 15 1 11 9 15 9 15 1 0 -7 5 -9 10 -6 6 4 9 1 8 -6 -3 -15 22 -19
39 -7 7 6 14 4 19 -3 5 -8 3 -9 -6 -4 -9 5 -11 4 -6 -3 4 -7 15 -8 29 -3 14 5
30 5 40 0 9 -6 17 -7 17 -3 0 3 6 1 14 -5 11 -9 16 -9 22 0 5 8 3 9 -6 4 -9
-5 -11 -4 -6 4 6 9 11 9 22 0 8 -6 14 -8 14 -3 0 5 5 2 10 -6 9 -13 10 -13 10
0 0 13 1 13 10 0 8 -13 10 -13 10 0 0 10 3 11 12 2 7 -7 17 -8 29 -2 12 7 20
6 25 -1 4 -8 9 -7 15 2 7 12 9 12 9 0 0 -11 3 -11 17 0 14 12 15 12 9 1 -7
-11 -4 -12 13 -3 16 9 21 9 21 -1 0 -10 2 -10 9 1 6 9 10 10 16 2 5 -9 10 -9
21 0 11 9 14 9 14 -1 0 -10 3 -10 15 0 12 10 15 10 15 0 0 -9 3 -10 13 -1 10
8 17 7 25 -1 9 -9 12 -9 12 1 0 7 4 10 9 6 5 -3 13 0 16 5 5 8 14 5 26 -6 14
-13 18 -14 14 -3 -4 11 4 14 34 14 29 0 37 -3 34 -15 -3 -10 0 -10 10 3 9 11
18 14 21 8 5 -7 15 -7 31 -1 24 9 29 6 26 -15 -1 -5 5 -2 13 8 8 10 16 15 19
10 3 -4 26 -8 51 -8 25 0 46 -4 46 -10 0 -5 4 -4 9 4 7 12 13 12 24 3 7 -7 17
-9 21 -5 11 11 36 12 36 2 0 -6 5 -7 10 -4 6 4 7 11 4 17 -4 7 0 7 12 0 11 -5
31 -7 47 -5 15 2 27 -1 27 -7 0 -6 7 -4 16 4 11 11 21 13 33 7 10 -6 23 -6 31
-1 8 5 21 5 29 1 9 -5 22 -6 30 -3 9 3 11 0 7 -9 -4 -8 2 -3 14 11 12 14 19
20 16 13 -4 -6 -2 -14 4 -18 5 -3 10 -1 10 6 0 8 5 7 17 -2 11 -10 14 -10 9
-1 -4 7 -1 12 9 12 10 0 13 -5 9 -13 -4 -6 1 -4 12 5 16 14 23 15 32 6 10 -10
17 -10 34 1 18 11 20 11 15 -3 -6 -14 -4 -14 19 1 20 13 27 14 34 4 6 -11 9
-11 13 0 4 11 6 11 6 1 1 -10 6 -10 21 -2 15 8 20 8 20 -1 0 -8 4 -8 15 1 12
10 15 10 15 0 0 -10 3 -10 15 0 12 10 15 10 15 -1 0 -12 2 -12 9 0 6 9 11 10
15 2 5 -8 13 -8 28 0 16 8 22 8 29 -2 6 -10 10 -10 23 0 12 11 16 11 16 1 0
-10 3 -10 15 0 12 10 15 10 15 0 0 -10 3 -10 15 0 12 10 15 10 15 0 0 -10 3
-10 14 -1 11 9 16 9 21 0 6 -8 10 -7 16 2 5 8 9 9 9 4 0 -13 40 -13 59 -1 10
6 16 5 19 -3 3 -9 7 -9 18 0 11 9 14 8 14 -2 1 -9 5 -8 15 5 13 18 15 18 15 3
0 -15 4 -16 20 -7 15 8 20 8 20 -1 0 -8 5 -8 16 2 12 10 17 10 23 0 6 -9 15
-9 35 -1 25 9 27 8 22 -6 -5 -14 -4 -15 9 -4 8 7 15 9 15 5 0 -4 8 -1 17 6 9
8 14 9 10 3 -4 -7 5 -11 24 -12 20 0 27 3 22 11 -4 7 0 6 10 -2 9 -7 14 -18
10 -24 -3 -6 -1 -7 6 -3 6 4 8 12 5 18 -5 7 -1 9 9 5 9 -3 19 -2 22 3 4 6 12
10 18 10 7 0 6 -4 -3 -10 -13 -8 -13 -10 2 -10 9 0 25 -3 35 -6 15 -5 16 -4 3
5 -12 9 -10 11 10 8 14 -1 30 -6 37 -10 6 -4 15 -2 19 4 5 8 3 9 -6 4 -9 -5
-11 -4 -6 4 6 9 11 9 22 0 8 -6 14 -8 14 -4 0 4 8 1 17 -6 14 -12 16 -12 8 0
-6 11 -4 13 11 7 10 -5 30 -9 44 -9 14 -1 28 -6 32 -12 5 -6 8 -4 8 5 1 11 4
10 15 -4 10 -13 15 -15 15 -6 0 7 3 10 7 7 3 -4 13 -1 21 6 13 10 14 9 8 -1
-6 -9 -1 -11 18 -8 14 3 30 7 36 11 5 3 10 1 10 -6 0 -8 4 -9 13 0 10 8 17 7
27 -2 9 -9 11 -9 6 0 -4 8 1 11 14 10 11 -1 20 -6 20 -12 0 -5 4 -4 9 3 11 17
21 17 32 0 7 -11 9 -11 9 1 0 9 4 10 13 4 13 -10 73 -9 98 1 10 4 20 3 23 -3
6 -9 34 -4 57 10 3 2 14 -3 24 -11 17 -14 18 -13 12 4 -6 16 -5 17 8 6 12 -10
15 -10 15 1 1 9 4 8 11 -4 8 -14 14 -16 25 -6 11 9 14 9 14 -1 0 -10 3 -10 15
0 12 10 15 10 15 0 0 -9 3 -10 13 -1 8 6 18 7 23 3 4 -4 2 2 -6 13 -14 17 -11
17 24 -4 25 -14 35 -17 27 -7 -18 21 -2 20 22 -1 11 -10 17 -12 13 -5 -7 11
-4 11 13 0 13 -8 17 -16 11 -22 -6 -6 -1 -16 12 -28 12 -10 16 -18 9 -18 -8 0
-7 -5 3 -16 19 -19 21 -28 4 -19 -7 4 -4 -1 7 -11 20 -16 20 -16 -5 -11 -22 5
-23 5 -8 -7 10 -7 15 -16 11 -19 -3 -4 -1 -7 6 -7 9 0 9 -5 0 -22 -6 -13 -8
-20 -4 -16 7 7 18 -1 45 -36 11 -15 11 -18 2 -12 -11 7 -12 4 -3 -13 7 -11 17
-21 24 -21 7 0 6 -4 -3 -10 -10 -6 -11 -10 -2 -10 6 0 12 -7 12 -15 0 -8 5
-15 10 -15 6 0 10 -7 10 -16 0 -20 25 -45 36 -36 5 4 3 0 -4 -10 -11 -14 -10
-17 7 -23 12 -4 21 -15 21 -27 0 -15 4 -18 17 -14 10 4 14 4 11 0 -10 -10 11
-46 23 -39 5 4 9 -3 9 -15 0 -12 5 -18 10 -15 6 3 10 1 10 -5 0 -15 18 -31 52
-49 16 -8 28 -20 28 -28 0 -7 5 -13 10 -13 6 0 10 -8 10 -17 0 -14 2 -15 9 -5
7 11 10 10 15 -3 3 -9 12 -15 19 -12 6 2 18 -3 25 -12 8 -9 11 -10 7 -4 -4 9
-1 11 9 7 9 -3 13 -10 10 -15 -5 -8 12 -13 43 -12 7 1 10 -4 6 -10 -4 -6 0 -8
10 -4 17 6 41 -15 29 -27 -4 -4 -2 -7 3 -5 6 1 23 -3 38 -9 16 -7 33 -10 38
-6 5 3 12 -1 15 -10 3 -8 12 -17 20 -20 9 -3 12 -1 9 4 -3 6 -1 10 4 10 6 0
11 -7 11 -16 0 -8 5 -12 10 -9 6 3 10 2 10 -3 0 -6 18 -9 39 -8 31 1 37 -2 29
-12 -8 -9 -7 -11 5 -7 8 4 18 2 22 -4 3 -6 12 -11 18 -11 7 0 6 4 -3 10 -9 6
-10 10 -3 10 6 0 15 -5 18 -10 4 -6 11 -7 17 -4 7 4 8 2 4 -4 -6 -11 6 -16 27
-13 4 0 7 -3 7 -9 0 -5 7 -10 15 -10 8 0 15 -6 15 -12 0 -9 4 -8 10 2 7 11 10
11 10 2 0 -7 4 -11 9 -7 5 3 12 -3 14 -12 4 -16 5 -16 6 1 1 17 2 18 27 1 15
-9 23 -12 20 -6 -4 6 -3 11 2 11 6 0 13 -7 16 -16 4 -11 10 -13 19 -7 6 5 19
9 27 8 8 0 18 4 22 10 5 6 8 6 8 -2 0 -7 5 -13 11 -13 5 0 7 6 3 13 -6 9 -4 9
8 -1 10 -8 18 -9 22 -3 4 6 14 7 23 4 12 -5 14 -3 8 7 -6 10 -4 10 11 2 14 -8
21 -6 32 6 7 10 11 11 7 5 -8 -16 31 -18 40 -3 4 7 13 6 27 -1 16 -9 19 -8 13
2 -6 9 -3 11 8 6 10 -3 17 -2 17 4 0 6 4 8 9 5 5 -4 21 -2 35 4 19 7 26 6 26
-3 0 -8 4 -7 10 3 9 13 10 13 10 0 1 -11 4 -10 15 4 11 14 15 16 15 5 1 -10 3
-9 11 4 6 9 14 15 20 12 5 -4 9 -2 9 4 0 5 11 8 24 5 15 -2 26 2 30 11 3 8 12
12 21 9 8 -3 15 -1 15 6 0 6 5 8 10 5 6 -3 10 -1 10 4 0 6 9 11 20 11 11 0 20
5 20 10 0 6 7 10 16 10 8 0 13 4 9 10 -6 9 70 35 93 31 6 -1 12 3 12 10 0 8 5
7 18 -2 9 -7 14 -9 10 -5 -9 10 62 57 74 50 4 -3 17 10 29 28 12 18 18 24 15
14 -5 -16 -4 -17 9 -6 8 7 13 15 11 19 -1 3 5 14 16 24 10 9 18 14 18 10 0 -5
5 0 11 10 5 9 7 22 3 29 -4 6 -3 9 2 5 10 -6 44 16 47 30 1 4 7 8 13 7 6 -1
11 4 12 10 4 45 25 76 51 76 14 0 14 2 1 10 -13 8 -12 10 3 10 9 0 16 3 15 7
-3 14 14 43 22 38 5 -3 6 5 2 17 -4 16 -2 19 8 13 10 -6 12 -4 7 9 -5 13 -3
17 6 13 8 -3 14 1 14 9 0 7 -5 10 -11 6 -6 -3 0 8 14 25 14 17 30 28 35 25 6
-3 5 1 -1 9 -9 11 -9 17 1 26 7 6 15 9 18 6 3 -3 3 5 0 18 -5 16 -3 20 6 14
10 -6 11 -3 3 11 -8 15 -5 26 14 49 19 24 31 29 68 30 24 0 42 -3 40 -7 -2 -4
0 -10 6 -13 6 -4 9 -1 8 6 -2 6 3 14 11 17 8 2 11 0 7 -6 -4 -6 2 -8 14 -5 11
3 17 10 13 17 -4 7 -1 6 9 -1 8 -7 17 -10 21 -7 3 3 15 1 26 -5 17 -10 20 -9
14 5 -5 13 -2 15 13 7 22 -10 44 -10 61 0 6 4 15 2 19 -4 5 -8 3 -9 -6 -4 -9
5 -11 4 -6 -4 6 -9 11 -9 23 1 20 16 17 17 44 -7 13 -11 18 -13 12 -4 -10 13
-8 15 15 13 15 -1 36 -5 47 -9 16 -6 17 -5 5 4 -12 9 -11 11 8 11 16 0 21 -4
16 -12 -6 -10 -4 -10 8 0 13 10 18 10 24 1 5 -9 10 -7 15 7 7 17 8 16 9 -6 1
-21 2 -22 9 -6 7 17 8 17 24 2 9 -10 17 -13 17 -8 0 5 10 8 23 7 12 -1 27 2
34 7 7 5 14 5 17 -1 4 -6 14 -7 23 -4 11 4 14 3 9 -5 -4 -7 -2 -12 3 -12 6 0
11 5 11 11 0 8 6 7 17 -2 11 -10 14 -10 9 -1 -11 18 4 15 27 -6 11 -9 17 -11
13 -4 -6 10 -1 11 18 7 14 -3 38 -7 52 -10 15 -4 23 -2 20 4 -3 5 3 7 14 4 12
-3 20 0 20 6 0 7 4 10 9 7 5 -4 12 0 14 6 3 8 6 6 6 -5 1 -10 6 -15 11 -12 6
3 10 1 10 -5 0 -7 6 -8 19 -1 10 6 20 8 23 6 3 -3 23 -6 46 -7 23 -1 39 -5 36
-10 -8 -12 10 -10 24 4 8 8 12 8 12 1 0 -6 14 -10 31 -9 16 1 32 -1 35 -6 3
-5 10 -6 15 -3 5 4 9 2 9 -3 0 -5 27 -9 59 -8 33 1 58 -1 56 -5 -7 -10 40 -4
47 6 5 7 8 7 8 0 0 -6 22 -9 50 -8 34 1 48 -2 44 -9 -5 -7 -2 -8 7 -2 20 12
51 16 45 5 -3 -5 5 -8 19 -7 14 0 25 6 25 11 0 6 4 3 10 -5 5 -8 12 -11 16 -7
4 4 14 1 22 -6 13 -9 14 -9 8 1 -5 8 0 12 14 12 14 0 19 -4 14 -12 -6 -10 -4
-10 7 -2 8 6 25 10 38 8 14 -3 28 1 33 8 5 8 8 9 8 2 0 -6 10 -10 23 -10 12 1
28 -3 36 -8 11 -8 13 -8 8 0 -5 8 19 11 86 9 50 -2 96 -4 100 -4 5 -1 5 -7 2
-13 -4 -7 0 -5 8 5 11 14 16 15 20 5 3 -8 6 -9 6 -2 1 8 12 9 36 4 19 -4 33
-5 30 0 -3 6 58 5 75 -1 3 -1 9 -1 14 0 5 1 13 -4 19 -11 7 -10 8 -9 4 3 -4
12 4 15 44 14 26 -1 52 -4 56 -8 4 -5 -1 -5 -12 -2 -16 6 -17 5 -5 -3 10 -8
18 -8 27 0 10 8 13 7 13 -3 0 -11 2 -11 10 1 9 13 10 13 10 0 0 -12 2 -13 9
-1 5 7 10 9 12 3 2 -5 15 -13 28 -17 18 -6 22 -4 15 6 -6 12 -5 12 9 0 14 -11
17 -11 17 0 0 8 4 7 13 -5 13 -17 52 -13 41 5 -3 5 2 6 10 3 9 -3 13 -10 10
-15 -3 -5 2 -6 10 -3 9 3 13 10 10 15 -3 5 2 6 10 3 9 -3 16 -11 16 -17 0 -7
4 -7 12 1 15 15 31 16 22 0 -5 -8 -2 -9 9 -5 10 3 17 2 17 -3 0 -6 5 -10 11
-10 5 0 7 4 4 10 -9 15 2 12 19 -6 12 -12 16 -12 16 -2 0 10 3 9 10 -2 8 -12
10 -12 10 -1 0 11 3 11 15 1 12 -10 15 -10 15 0 0 10 3 10 15 0 12 -10 15 -10
15 1 0 9 3 10 8 4 11 -16 46 -19 36 -3 -5 9 -2 8 11 -2 15 -12 19 -12 23 -2 3
10 9 9 25 -5 11 -10 17 -13 14 -7 -4 7 0 15 9 18 8 3 12 2 9 -4 -3 -5 4 -8 15
-7 11 1 20 5 20 10 0 4 5 5 10 2 6 -4 7 -11 4 -17 -5 -7 -2 -8 7 -2 8 5 22 7
33 5 13 -2 16 1 10 11 -4 7 2 4 14 -6 12 -11 22 -14 22 -8 0 5 9 8 20 5 11 -3
26 0 34 6 11 10 17 8 25 -6 8 -14 12 -15 19 -5 7 11 11 10 16 -3 5 -14 9 -15
22 -4 13 10 17 10 24 0 5 -9 10 -10 14 -2 5 7 15 7 32 1 17 -7 23 -7 19 0 -3
6 -1 10 4 10 6 0 11 -4 11 -8 0 -11 131 -9 149 2 10 6 12 5 7 -2 -10 -16 7
-15 23 1 11 10 12 9 6 -1 -5 -10 0 -12 23 -9 18 3 33 0 36 -6 2 -7 5 -8 5 -2
1 7 16 9 36 7 20 -2 32 -8 29 -14 -4 -6 4 -5 16 2 18 9 24 9 30 0 6 -9 9 -9
13 1 4 9 8 10 14 4 11 -14 33 -17 33 -4 0 6 5 7 13 2 18 -11 51 -10 59 2 5 7
8 6 8 -1 0 -7 22 -11 59 -10 43 1 57 -2 50 -10 -6 -8 -2 -10 15 -9 14 2 29 6
35 9 5 4 13 1 17 -5 4 -8 9 -7 15 2 5 9 9 10 9 2 0 -13 226 -13 248 1 7 4 12
2 12 -6 0 -9 3 -9 10 2 5 8 10 10 10 3 0 -12 39 -11 60 2 8 5 11 4 7 -2 -4 -6
9 -10 30 -11 20 -1 40 -7 44 -13 5 -8 8 -8 13 0 4 6 12 11 17 11 6 0 7 -6 3
-12 -5 -9 -2 -9 9 1 9 7 17 9 17 4 0 -5 7 -10 15 -10 10 0 14 6 10 16 -4 14
-4 14 8 1 16 -20 38 -24 48 -8 6 9 9 9 9 1 0 -13 18 -12 39 1 9 6 12 5 8 -1
-4 -6 4 -10 18 -10 14 0 28 3 31 8 3 5 14 3 24 -4 16 -9 24 -9 39 0 10 7 22 9
25 5 4 -3 16 -7 27 -9 14 -2 18 1 13 9 -6 10 -5 10 7 1 12 -10 18 -10 27 -1 8
8 12 8 12 1 0 -6 11 -10 25 -10 16 0 22 4 18 11 -4 7 -1 6 8 -1 12 -10 18 -10
28 0 9 9 14 9 21 -3 7 -11 10 -11 10 -2 0 7 5 10 10 7 6 -3 10 -2 10 3 0 5 12
8 27 6 15 -1 33 2 39 7 8 7 14 6 19 -1 3 -6 11 -8 16 -5 5 4 19 8 31 10 12 3
25 10 30 17 4 8 8 8 8 2 0 -6 7 -11 15 -11 8 0 12 4 9 9 -3 4 12 9 33 10 57 2
57 2 87 22 16 10 25 13 22 7 -11 -18 5 -13 21 7 8 9 12 11 8 5 -10 -20 13 -15
24 5 6 9 11 12 11 6 0 -23 33 -9 63 28 16 21 32 36 35 33 2 -2 11 2 19 10 10
11 19 12 33 5 13 -7 21 -7 26 1 4 8 9 7 14 -2 7 -10 11 -10 24 0 10 8 16 9 16
3 0 -6 23 -10 54 -10 30 1 61 -4 69 -10 10 -9 16 -9 25 0 8 8 12 9 12 1 0 -6
8 -10 18 -8 9 1 23 -2 30 -8 6 -5 12 -6 12 -1 0 5 16 9 35 10 19 0 32 -3 30
-7 -6 -9 15 -6 32 4 6 4 15 2 19 -4 5 -8 3 -9 -6 -4 -8 5 -11 4 -6 -3 4 -6 13
-9 21 -6 8 4 13 9 10 13 -2 4 2 8 10 8 8 0 12 -4 9 -9 -3 -4 -1 -8 5 -8 5 0
13 5 16 10 6 10 45 7 65 -5 5 -3 10 -1 10 5 0 7 6 8 19 1 10 -6 20 -9 22 -7 2
2 17 6 32 10 19 4 26 3 22 -4 -3 -5 -1 -10 4 -10 6 0 11 4 11 10 0 5 7 6 17 3
12 -5 14 -3 8 7 -5 8 -4 11 2 7 6 -4 23 -3 39 2 16 4 39 4 52 0 15 -6 22 -5
23 4 0 7 4 3 9 -8 6 -13 9 -15 9 -5 1 10 11 15 30 15 24 0 27 -2 18 -15 -8
-10 -3 -9 17 4 16 10 26 13 22 8 -3 -6 -2 -13 4 -17 5 -3 10 -2 10 3 0 12 43
10 52 -3 5 -7 8 -6 8 0 0 6 9 11 20 12 11 1 18 -3 14 -8 -7 -12 19 -7 28 6 5
6 8 5 8 -3 0 -7 4 -10 10 -7 5 3 19 1 31 -6 17 -9 20 -8 14 2 -6 9 -2 11 13 7
12 -3 23 -1 25 6 3 8 8 7 19 -2 12 -10 18 -10 23 -1 6 8 10 7 16 -2 5 -9 9
-10 9 -3 0 7 7 15 16 18 8 3 12 2 9 -4 -3 -6 -1 -10 4 -10 6 0 11 3 11 8 0 4
18 6 40 6 22 -1 43 2 46 7 3 5 11 9 17 9 7 0 6 -4 -3 -10 -12 -8 -9 -10 12 -7
15 1 30 6 34 10 4 3 21 1 38 -6 33 -14 70 -12 61 3 -3 5 9 2 25 -7 17 -8 34
-12 37 -9 4 3 1 6 -5 6 -7 0 -12 5 -12 10 0 12 41 -7 52 -24 4 -6 8 0 8 14 1
21 2 22 10 8 8 -12 17 -14 38 -9 19 6 30 3 40 -8 11 -14 11 -14 6 2 -5 15 -2
17 19 13 14 -2 28 1 31 7 5 9 7 9 12 0 4 -9 11 -10 25 -3 14 8 19 7 19 -2 0
-8 3 -9 8 -3 10 14 46 19 37 6 -3 -6 -2 -11 4 -11 5 0 11 4 13 9 2 5 17 11 33
13 17 1 33 7 37 13 5 7 8 6 8 -1 0 -6 10 -10 23 -8 12 1 22 3 22 4 0 1 10 3
22 4 12 1 20 -1 17 -6 -3 -4 0 -8 5 -8 6 0 11 5 11 11 0 5 4 8 9 4 5 -3 12 -1
16 5 4 7 12 7 26 0 11 -7 19 -7 19 -1 0 5 8 8 18 6 9 -1 23 2 30 8 10 8 16 7
23 -4 7 -12 9 -12 9 0 0 11 3 12 12 3 8 -8 17 -8 31 0 12 6 22 7 26 0 7 -11
40 -10 59 2 7 4 12 2 12 -5 0 -8 4 -8 15 1 12 10 15 10 15 -1 0 -11 2 -11 10
1 5 8 10 10 10 4 0 -14 72 -13 83 1 4 6 11 4 17 -5 9 -13 10 -13 10 0 0 13 1
13 10 0 9 -13 11 -13 20 0 6 9 13 11 18 5 10 -15 35 -12 50 5 8 8 11 10 8 3
-4 -6 -2 -14 4 -18 5 -3 10 0 10 7 0 10 3 9 9 -1 8 -12 12 -12 25 -2 12 10 16
10 16 2 0 -7 5 -9 13 -4 6 4 20 6 31 4 13 -2 16 1 11 11 -6 10 -5 11 6 1 14
-14 33 -18 25 -5 -2 4 11 6 30 4 23 -3 34 0 34 9 0 8 6 5 15 -7 8 -10 15 -14
15 -9 0 14 40 14 40 1 0 -5 6 -2 13 9 11 14 16 15 22 5 5 -9 4 -11 -3 -6 -7 4
-12 2 -12 -3 0 -14 6 -14 32 0 15 8 19 8 14 0 -4 -6 -2 -11 3 -11 6 0 11 5 11
12 0 6 3 9 6 5 3 -3 17 -2 31 4 13 5 22 5 19 1 -2 -4 4 -8 14 -8 10 0 17 3 14
7 -2 4 7 7 21 7 15 0 22 -5 19 -12 -3 -6 4 0 15 14 18 21 20 21 15 5 -4 -11
-4 -17 1 -13 4 4 15 2 23 -5 13 -9 14 -9 8 1 -9 16 6 16 23 0 11 -11 13 -10 8
3 -3 9 0 16 9 16 7 0 11 -4 8 -9 -3 -4 0 -8 5 -8 6 0 11 6 11 13 0 9 2 9 9 -1
11 -17 12 -18 37 -4 16 9 26 8 44 -5 22 -15 23 -15 17 0 -5 14 -3 16 12 8 10
-6 21 -8 24 -4 4 3 14 0 24 -8 14 -12 16 -12 8 0 -6 11 -4 13 7 9 8 -4 21 -2
28 2 7 4 24 3 36 -2 16 -7 28 -8 36 -1 17 13 81 8 86 -6 2 -6 9 -8 15 -4 7 3
9 3 5 -2 -4 -4 -2 -15 5 -23 9 -13 9 -14 0 -8 -7 4 -13 4 -14 -1 0 -4 -2 -19
-5 -32 -4 -21 -3 -22 13 -10 17 13 17 13 0 -7 -9 -11 -14 -24 -10 -27 3 -4 1
-7 -6 -7 -7 0 -10 -4 -7 -9 4 -5 0 -12 -6 -14 -7 -3 -4 -6 7 -7 17 0 17 -2 5
-10 -17 -9 -19 -47 -5 -70 6 -9 4 -11 -5 -5 -10 6 -12 4 -7 -8 3 -9 2 -19 -4
-22 -5 -4 -6 -11 -2 -18 12 -19 6 -89 -8 -98 -12 -7 -11 -9 1 -9 13 0 13 -1 0
-10 -8 -5 -11 -10 -7 -10 4 0 3 -9 -3 -19 -7 -14 -6 -21 3 -24 8 -4 8 -6 0 -6
-6 -1 -9 -10 -5 -23 4 -16 2 -19 -9 -13 -11 7 -12 6 -2 -6 9 -11 9 -19 2 -26
-8 -8 -8 -13 0 -17 14 -9 14 -26 0 -26 -5 0 -7 5 -3 12 4 7 3 8 -4 4 -15 -9
-15 -11 4 -31 12 -12 13 -19 5 -29 -9 -11 -9 -15 1 -19 9 -4 9 -6 1 -6 -7 -1
-10 -11 -7 -27 3 -18 1 -23 -7 -18 -8 5 -9 3 -4 -6 14 -23 13 -69 -3 -75 -11
-4 -12 -8 -3 -19 8 -10 9 -16 2 -21 -7 -4 -6 -13 2 -26 10 -16 9 -21 -3 -29
-12 -8 -12 -10 -1 -10 11 0 11 -3 0 -17 -8 -9 -9 -14 -3 -10 6 3 11 0 11 -8 0
-8 -4 -12 -7 -10 -14 9 -5 -52 10 -71 13 -16 13 -17 0 -9 -12 8 -12 5 1 -15 9
-14 22 -26 28 -26 6 -1 12 -3 14 -4 7 -8 54 -6 64 2 7 6 14 5 18 -3 6 -8 10
-7 16 2 5 8 9 9 9 4 0 -15 40 -16 40 -2 0 7 4 6 10 -3 8 -13 10 -13 10 2 0 10
5 15 13 12 13 -5 51 49 40 59 -3 4 0 13 7 22 10 12 10 15 -1 15 -8 1 -3 7 10
14 21 12 22 14 5 20 -14 6 -15 9 -5 15 11 7 11 10 0 16 -9 6 -8 10 7 16 18 7
18 8 -1 8 -16 1 -17 3 -5 11 12 7 12 11 -3 28 -16 17 -16 21 -2 32 17 14 21
35 4 24 -7 -4 -6 3 2 17 7 13 12 32 10 41 -1 10 3 18 10 18 8 0 8 4 -1 15 -7
9 -10 18 -7 22 4 3 2 12 -4 19 -7 8 -7 14 1 19 8 5 7 11 -2 23 -8 9 -8 13 -2
9 7 -4 14 0 18 8 3 8 0 17 -6 21 -7 5 -7 9 1 13 14 9 22 71 9 71 -5 0 -4 8 1
18 7 13 6 23 -1 30 -8 8 -8 12 -2 12 12 0 12 29 1 47 -4 6 -2 15 4 19 8 5 9 3
4 -6 -5 -9 -4 -11 4 -6 6 4 8 13 4 19 -14 22 -10 67 6 67 11 0 10 4 -5 16 -10
8 -14 13 -8 10 7 -3 15 1 18 10 3 8 2 12 -4 9 -6 -3 -10 -1 -10 4 0 6 4 11 9
11 5 0 8 11 5 25 -3 20 -1 23 13 18 15 -5 14 -3 -2 10 -11 9 -15 17 -10 17 6
0 10 12 9 28 0 15 4 30 10 34 7 5 6 8 -4 8 -13 0 -13 1 0 10 12 8 12 10 1 10
-11 0 -11 3 -1 15 9 11 9 15 1 15 -8 0 -8 4 1 14 9 10 15 11 20 2 5 -7 8 -5 8
6 0 9 5 20 12 24 7 5 8 3 3 -6 -6 -10 -3 -12 13 -8 12 4 20 2 16 -3 -9 -14 6
-10 23 6 11 12 18 13 29 5 17 -15 64 -20 64 -7 0 5 7 4 15 -3 8 -7 15 -8 15
-2 0 5 11 12 25 14 14 3 25 1 25 -5 0 -5 7 -4 15 3 8 7 22 10 30 6 8 -3 15 -1
15 4 0 6 -5 10 -12 10 -6 0 -8 3 -5 6 4 4 13 1 22 -6 8 -7 24 -10 35 -7 11 3
22 1 25 -4 3 -4 13 -5 21 -2 9 3 20 0 25 -8 6 -10 9 -10 9 -2 0 7 7 10 17 6
12 -5 14 -3 8 8 -5 8 -1 7 12 -4 11 -9 22 -14 26 -11 12 12 79 15 72 4 -5 -8
-2 -9 11 -1 41 21 104 34 104 20 0 -3 7 -6 15 -6 11 0 12 4 4 14 -9 10 -8 13
1 13 8 0 10 3 7 7 -4 3 -2 12 5 20 9 11 7 12 -8 7 -18 -5 -18 -5 0 10 13 10
15 16 7 16 -10 0 -11 3 -3 13 7 8 7 18 2 27 -5 8 -4 22 3 34 6 12 11 32 12 46
1 14 5 31 9 38 5 8 2 11 -6 10 -7 -2 -12 3 -10 9 1 7 -3 13 -9 13 -6 0 -9 7
-6 14 4 10 1 13 -8 10 -8 -3 -22 1 -31 10 -8 9 -20 14 -25 11 -5 -4 -9 -1 -9
4 0 6 -13 11 -30 11 -16 0 -30 5 -30 10 0 6 -9 10 -21 10 -11 0 -18 4 -15 9 3
4 -6 7 -20 5 -15 -1 -28 4 -31 12 -4 12 -8 12 -21 2 -12 -10 -14 -10 -8 0 5 8
-1 12 -21 13 -15 1 -32 1 -36 0 -5 -1 -5 4 -1 10 5 8 2 10 -9 6 -9 -3 -18 1
-21 10 -5 13 -9 13 -23 2 -20 -17 -17 -18 -42 5 -12 11 -21 15 -21 10 0 -5 -5
-2 -10 6 -8 13 -10 13 -10 1 0 -11 -4 -9 -15 5 -8 10 -15 14 -15 7 0 -7 -7
-10 -15 -7 -8 4 -12 10 -9 15 3 5 0 9 -5 9 -6 0 -11 -6 -11 -12 0 -10 -2 -10
-8 -1 -4 7 -22 13 -40 15 -18 1 -32 7 -32 12 0 6 -5 5 -12 -2 -16 -16 -28 -15
-28 3 0 9 -6 12 -15 8 -13 -4 -15 0 -11 21 3 16 0 26 -7 26 -9 0 -8 3 1 8 8 5
11 22 8 45 -4 25 -1 37 7 37 7 0 6 4 -3 10 -11 7 -11 10 -2 10 10 0 10 5 2 20
-7 14 -7 20 0 20 5 0 10 5 10 11 0 5 -4 8 -8 5 -5 -3 -9 1 -9 8 0 9 7 12 16 8
14 -5 14 -3 2 11 -11 14 -11 17 0 17 8 0 6 6 -7 16 -10 8 -14 13 -8 10 7 -3
14 3 17 14 3 13 1 18 -6 13 -7 -4 -6 1 2 10 11 14 11 17 0 17 -12 0 -12 2 -1
9 8 4 14 12 14 16 0 4 -6 12 -14 16 -7 5 -8 9 -2 9 6 0 11 7 11 15 0 8 -5 15
-11 15 -6 0 -5 4 3 9 12 8 12 12 2 24 -9 12 -9 16 1 20 10 4 10 8 -2 16 -10 7
-11 11 -3 11 13 0 13 34 0 46 -3 4 -2 14 3 23 4 9 8 49 7 89 -1 40 2 74 8 76
6 3 5 5 -2 5 -8 1 -9 10 -3 30 4 15 4 34 0 42 -6 8 -2 18 8 26 15 12 15 13 -3
7 l-20 -6 20 17 c20 17 20 17 -5 12 -23 -6 -24 -5 -6 8 10 7 15 18 12 24 -4 5
-2 12 4 16 5 3 10 11 10 16 0 6 -4 8 -8 5 -4 -2 -8 4 -8 14 0 10 4 16 8 14 13
-8 9 11 -4 25 -11 10 -10 11 3 6 10 -4 20 -1 25 6 5 8 3 10 -7 4 -12 -8 -12
-6 -1 8 8 9 11 21 7 27 -3 5 -1 10 6 10 8 0 8 4 -1 15 -7 8 -9 15 -4 15 5 0 9
11 9 24 0 20 -3 22 -14 13 -12 -10 -12 -9 -3 10 9 16 9 23 -1 26 -9 4 -9 6 1
6 6 1 12 8 12 16 0 8 6 15 13 15 8 0 8 3 2 8 -6 4 -12 21 -13 37 -1 17 2 25 6
18 4 -6 7 22 7 63 0 42 4 74 9 74 6 0 5 5 -2 12 -9 9 -7 15 6 25 9 8 11 12 5
8 -7 -3 -13 -2 -13 2 0 5 6 15 13 22 10 11 10 13 0 7 -21 -11 -20 48 0 73 8 9
8 12 1 8 -6 -3 -11 0 -11 8 0 8 4 12 9 9 4 -3 8 5 8 17 0 16 5 20 20 16 13 -3
20 0 20 10 0 9 6 13 15 9 8 -3 15 -2 15 2 0 4 11 7 25 7 14 0 25 -5 25 -11 0
-7 9 -14 21 -17 17 -5 19 -9 9 -26 -8 -16 -8 -21 2 -21 9 0 9 -3 -2 -10 -10
-6 -11 -10 -2 -10 6 0 12 -5 12 -11 0 -5 -6 -7 -12 -3 -10 6 -10 4 0 -7 6 -7
12 -21 12 -31 0 -10 5 -18 10 -18 6 0 10 -8 10 -17 0 -11 3 -14 8 -7 4 7 16 8
27 4 13 -5 25 -2 33 9 11 13 12 13 7 1 -6 -13 -5 -13 7 0 7 8 20 16 28 18 8 2
20 8 25 14 7 8 6 8 -4 3 -9 -5 -12 -4 -7 3 4 7 13 12 20 12 8 0 21 10 30 23 9
12 14 16 11 10 -10 -20 9 -15 24 6 8 11 21 17 29 13 11 -4 13 -2 7 8 -6 10 -4
12 9 7 12 -5 16 -2 14 11 -2 9 2 16 9 15 7 -2 10 4 7 12 -4 8 1 17 9 21 9 3
13 12 10 20 -3 8 -8 12 -11 9 -3 -2 -11 4 -19 14 -8 12 -22 18 -33 16 -11 -2
-20 2 -20 8 0 7 -4 6 -10 -3 -6 -9 -10 -10 -10 -3 0 8 -9 9 -30 3 -19 -5 -30
-5 -30 1 0 6 -4 7 -10 4 -5 -3 -10 -1 -10 4 0 6 -5 11 -11 11 -5 0 -7 -4 -4
-10 3 -6 -1 -7 -9 -4 -9 3 -16 10 -16 16 0 5 -4 6 -10 3 -5 -3 -10 -1 -10 4 0
6 -3 10 -7 10 -20 -3 -33 2 -31 13 2 7 -3 12 -9 13 -7 0 -12 3 -10 7 1 4 -7
14 -18 22 -11 9 -14 16 -7 16 6 0 12 5 12 11 0 5 -4 8 -9 5 -5 -3 -16 5 -25
19 -9 14 -25 25 -36 25 -11 0 -20 3 -20 8 0 4 -15 8 -32 8 -18 1 -42 5 -52 9
-14 6 -17 5 -12 -3 5 -8 2 -10 -8 -6 -9 3 -13 10 -10 15 3 5 -2 6 -10 3 -9 -3
-13 -11 -10 -18 3 -6 -2 -2 -10 8 -9 11 -16 14 -16 8 0 -7 -10 -12 -23 -12
-13 0 -29 -6 -36 -12 -11 -10 -12 -10 -7 -1 5 9 2 11 -8 7 -9 -3 -16 -11 -16
-16 0 -6 -6 -5 -15 2 -12 10 -13 8 -10 -10 4 -19 2 -20 -12 -8 -12 9 -15 9 -9
1 4 -8 2 -13 -4 -13 -6 0 -9 -4 -6 -9 9 -14 -5 -42 -18 -34 -6 3 -6 1 2 -8 14
-15 17 -43 3 -34 -6 3 -6 -7 -1 -26 7 -25 6 -30 -5 -26 -11 5 -11 1 0 -27 12
-28 12 -36 -1 -54 -13 -19 -12 -22 3 -31 10 -6 13 -11 6 -11 -6 0 -10 -9 -8
-20 2 -11 -2 -20 -8 -20 -8 0 -8 -3 1 -9 17 -11 17 -21 0 -32 -10 -7 -10 -9 0
-9 9 0 10 -5 3 -18 -7 -13 -6 -23 1 -30 9 -9 8 -12 -2 -12 -13 0 -13 -2 0 -10
12 -8 12 -10 1 -10 -11 0 -11 -3 -1 -15 10 -12 10 -15 0 -15 -9 0 -9 -4 1 -17
12 -15 12 -16 -4 -10 -14 5 -16 3 -9 -10 6 -9 6 -29 1 -46 -7 -26 -7 -27 9
-16 9 8 6 0 -8 -15 -14 -16 -20 -26 -13 -22 8 4 11 -1 10 -14 -1 -11 -4 -20
-8 -20 -3 0 -5 -17 -3 -37 3 -50 -5 -84 -20 -77 -6 3 -3 -1 7 -9 16 -13 16
-15 1 -21 -13 -5 -14 -9 -4 -21 6 -8 8 -20 4 -26 -5 -8 -3 -9 6 -4 10 6 12 4
7 -9 -4 -10 -7 -20 -7 -22 0 -3 -4 -2 -10 1 -10 6 -11 4 -14 -50 -1 -16 -5
-35 -9 -42 -4 -6 -3 -15 3 -18 8 -5 7 -11 -1 -21 -9 -11 -9 -14 0 -14 9 0 9
-5 1 -20 -8 -14 -8 -20 0 -20 6 0 9 -4 6 -8 -11 -19 -14 -91 -3 -96 7 -2 4 -5
-6 -5 -14 -1 -16 -5 -7 -20 7 -14 6 -21 -3 -24 -8 -4 -8 -6 2 -6 11 -1 10 -5
-5 -17 -10 -8 -14 -13 -8 -10 7 3 14 -1 18 -9 3 -8 0 -15 -7 -15 -8 0 -6 -4 3
-10 13 -9 13 -10 0 -10 -18 0 -22 -50 -5 -62 6 -4 2 -8 -8 -8 -17 0 -17 -1 -3
-16 18 -17 21 -28 6 -19 -5 3 -10 -3 -10 -15 0 -14 4 -19 13 -14 6 4 3 -3 -8
-16 -13 -15 -15 -21 -5 -16 8 4 6 0 -4 -8 -11 -9 -14 -16 -8 -16 14 0 12 -21
-3 -33 -6 -6 -6 -10 3 -14 6 -2 12 -9 12 -14 0 -6 -3 -8 -7 -6 -5 3 -9 -6 -9
-19 -1 -13 2 -21 8 -18 5 3 4 -3 -4 -15 -11 -17 -11 -25 0 -42 8 -12 9 -18 3
-14 -10 5 -16 -14 -12 -37 0 -5 -5 -8 -11 -8 -9 0 -8 -4 2 -10 13 -9 13 -11 0
-20 -13 -9 -13 -10 0 -10 12 0 13 -2 1 -9 -7 -5 -11 -13 -7 -19 3 -5 -2 -16
-11 -23 -12 -10 -14 -10 -9 -1 4 6 2 12 -3 12 -6 0 -11 -6 -11 -12 0 -10 -3
-9 -9 1 -5 7 -14 10 -20 7 -6 -4 -14 0 -17 9 -6 14 -8 14 -19 -1 -9 -14 -14
-14 -20 -4 -5 9 -4 11 3 6 7 -4 12 -2 12 4 0 8 -9 10 -25 6 -17 -4 -31 -1 -40
8 -8 8 -24 12 -35 9 -11 -3 -20 0 -20 6 0 6 -12 11 -26 11 -16 0 -23 4 -18 11
4 8 0 8 -15 0 -18 -10 -21 -9 -21 6 0 15 -2 15 -16 -3 -14 -17 -15 -17 -10 -1
3 10 2 16 -3 12 -5 -3 -20 -1 -34 4 -17 7 -28 6 -37 -2 -10 -9 -11 -9 -6 1 4
7 1 12 -8 12 -8 0 -17 -6 -19 -12 -4 -8 -6 -7 -6 4 -1 11 -7 15 -21 11 -11 -3
-20 -1 -20 4 0 5 -12 15 -26 21 -19 9 -24 9 -18 1 4 -8 3 -9 -4 -5 -21 13 -52
15 -52 4 0 -5 -8 -2 -17 9 -10 10 -13 12 -8 4 8 -12 6 -13 -10 -7 -11 5 -26 9
-32 9 -7 0 -13 7 -14 16 0 9 -3 11 -5 4 -4 -9 -14 -8 -38 2 -19 8 -36 11 -40
8 -3 -3 -16 2 -28 13 -12 10 -18 13 -13 5 5 -9 3 -12 -6 -9 -8 3 -13 11 -11
17 1 7 -3 9 -9 5 -18 -11 -121 -8 -128 4 -3 6 -19 9 -34 8 -18 -2 -27 1 -27
10 0 8 -9 14 -20 14 -11 0 -20 6 -20 13 0 8 -4 7 -10 -3 -5 -8 -10 -10 -10 -4
0 15 -91 24 -108 11 -9 -7 -11 -6 -6 6 4 12 0 15 -19 13 -19 -2 -24 1 -20 12
5 12 2 12 -15 3 -17 -9 -22 -9 -22 0 0 6 -7 8 -16 5 -12 -5 -15 -2 -10 11 6
15 4 14 -14 -2 -20 -18 -21 -18 -14 0 6 14 4 17 -9 12 -9 -3 -19 -2 -22 3 -3
5 -13 6 -22 3 -10 -4 -14 -2 -9 5 4 7 -2 9 -18 6 -14 -2 -31 2 -39 10 -8 8
-23 12 -34 10 -11 -3 -27 2 -37 11 -12 12 -16 13 -16 3 0 -10 -2 -10 -9 1 -5
8 -16 11 -25 8 -10 -4 -19 -1 -22 8 -4 8 -15 15 -26 15 -11 0 -29 5 -40 11
-16 9 -19 8 -12 -3 9 -15 -25 9 -38 27 -5 6 -8 6 -8 -1 0 -7 -7 -15 -16 -18
-15 -6 -15 -4 -3 10 12 15 12 16 -8 10 -27 -8 -62 22 -41 35 7 5 9 9 3 9 -5 0
-4 5 3 12 7 7 12 21 12 31 0 14 5 17 16 13 15 -6 15 -4 3 11 -12 15 -12 16 5
10 16 -6 17 -5 6 8 -11 13 -8 19 11 17 3 -1 4 10 1 23 -3 19 0 25 14 25 16 0
17 2 4 10 -11 7 -11 10 -2 10 7 0 10 5 6 11 -3 6 0 15 7 20 12 7 12 9 0 9 -11
0 -10 5 4 20 10 11 25 20 33 20 12 0 12 3 -4 15 -12 9 -14 14 -5 15 7 0 11 6
8 15 -4 8 -1 17 5 21 7 5 8 2 3 -6 -6 -9 -4 -11 4 -5 9 5 10 10 2 18 -7 7 -5
14 7 23 14 11 14 13 2 14 -12 0 -10 4 4 15 20 15 20 15 0 15 -18 1 -18 1 -1
11 19 11 24 34 5 24 -7 -4 -3 2 8 12 14 11 20 26 18 41 -2 13 0 21 5 18 12 -8
21 18 11 34 -9 15 -2 40 12 40 5 0 6 -6 2 -12 -4 -8 -3 -10 2 -5 5 5 10 21 10
35 1 15 3 27 4 27 1 0 3 13 5 29 2 16 9 32 16 36 8 6 8 9 -2 13 -10 4 -10 6
-1 6 6 1 12 8 12 17 0 9 5 12 13 8 7 -5 6 -1 -3 10 -13 16 -12 20 3 31 19 14
23 30 5 19 -10 -6 -10 -5 -1 8 7 8 10 18 6 21 -3 4 -1 7 6 7 7 0 11 6 8 14 -3
8 0 17 8 20 14 5 17 46 3 46 -4 0 -8 5 -8 11 0 5 5 7 10 4 6 -3 10 1 10 9 0 9
5 16 10 16 6 0 8 11 6 25 -3 14 -1 23 4 20 4 -3 11 2 14 11 8 22 8 26 -4 19
-6 -3 -7 1 -4 9 3 9 11 13 16 10 6 -4 5 3 -1 15 -10 18 -9 20 6 14 16 -6 16
-5 4 10 -7 9 -9 17 -3 17 5 0 13 7 16 16 4 9 2 13 -5 8 -8 -5 -8 -1 0 13 6 11
7 23 4 27 -3 3 -1 6 4 6 6 0 10 8 9 18 -2 9 4 23 13 30 9 8 11 11 4 8 -7 -4
-11 1 -10 14 1 11 4 20 8 20 4 0 6 11 4 25 -2 22 0 23 13 13 13 -11 14 -10 4
8 -8 16 -8 24 0 32 9 9 8 12 -2 12 -13 0 -13 2 0 10 8 5 11 10 5 10 -5 0 -3 5
5 10 9 6 11 10 3 10 -7 0 -10 7 -6 17 5 12 3 14 -7 8 -8 -5 -11 -4 -6 3 3 5 3
12 -1 15 -5 2 -2 2 6 0 9 -2 11 2 7 13 -5 14 -4 15 8 5 13 -11 15 -9 11 8 -2
12 0 21 5 21 5 0 7 9 5 20 -2 11 1 23 7 26 7 5 8 2 3 -6 -5 -9 -4 -11 4 -6 9
6 9 11 0 22 -9 11 -8 14 2 14 11 0 11 2 -1 10 -13 8 -12 10 4 10 14 0 16 3 7
14 -13 16 -4 49 12 39 6 -4 8 0 4 10 -3 10 -2 17 3 17 6 0 10 12 10 26 0 14 4
23 8 20 5 -3 8 10 7 29 0 19 3 35 8 35 4 0 5 4 2 10 -3 6 0 10 7 10 10 0 10 2
-1 9 -9 6 -10 11 -3 15 6 4 8 14 5 23 -4 10 -2 14 4 10 6 -4 14 0 17 9 3 8 2
12 -4 9 -6 -3 -10 -1 -10 4 0 6 5 11 11 11 6 0 9 7 5 15 -3 8 0 15 6 15 7 0 7
4 -1 14 -9 11 -8 15 6 20 14 6 15 9 4 15 -9 6 -10 11 -3 15 6 4 8 14 5 23 -4
11 -3 14 5 9 9 -5 9 0 2 20 -9 23 -9 25 4 15 13 -11 14 -9 10 14 -3 17 -1 24
6 20 13 -8 9 17 -5 27 -6 5 -5 8 3 8 7 0 11 4 7 9 -3 5 -1 12 5 16 15 9 12 27
-2 20 -7 -4 -6 0 4 7 11 10 13 19 7 30 -6 10 -4 20 5 27 8 7 13 23 11 36 -1
17 3 25 14 25 9 0 12 3 6 8 -12 8 -35 57 -35 74 0 6 6 6 16 -2 12 -11 15 -11
12 1 -2 8 3 13 10 11 8 -1 11 2 7 8 -3 6 -12 7 -18 3 -9 -5 -9 -3 -1 8 6 8 12
34 13 59 1 24 7 51 14 59 9 12 9 13 0 7 -9 -5 -13 0 -13 14 0 14 4 19 13 14 7
-5 6 0 -3 11 -12 15 -12 17 -1 10 11 -6 13 -3 9 13 -4 12 -2 22 2 22 5 0 5 14
0 30 -5 17 -5 30 -1 30 9 0 8 31 -3 48 -4 7 -2 12 4 12 7 0 9 8 5 19 -3 11 -1
22 5 26 15 9 12 28 -3 22 -10 -4 -13 2 -9 19 2 13 10 24 17 24 9 0 11 8 7 22
-4 16 -2 19 9 13 11 -7 11 -5 -1 10 -8 10 -10 16 -4 12 7 -4 14 0 17 8 4 10 1
12 -11 8 -14 -6 -15 -4 -5 9 7 8 10 18 6 21 -3 4 0 7 7 7 9 0 7 5 -6 16 -10 8
-14 13 -7 10 7 -4 11 5 9 26 -1 18 1 45 5 60 6 22 4 26 -9 21 -14 -5 -15 -3
-4 8 14 15 17 43 3 35 -5 -4 -8 1 -7 10 1 8 9 20 17 25 8 5 9 9 3 9 -6 0 -11
6 -11 14 0 9 6 12 16 8 14 -5 14 -3 3 11 -14 17 -19 78 -8 96 4 5 2 12 -4 16
-7 4 -7 12 0 25 7 13 7 21 -2 26 -7 5 -8 3 -3 -6 6 -9 4 -11 -4 -5 -9 5 -10
10 -2 18 15 15 14 40 -1 31 -10 -6 -10 -5 -1 7 8 10 11 46 10 102 -1 48 2 87
7 87 5 0 1 9 -9 20 -18 20 -18 21 1 14 17 -7 17 -6 5 9 -7 9 -10 17 -6 17 4 0
3 6 -3 13 -9 10 -7 19 4 35 13 19 13 22 0 22 -8 0 -18 4 -21 10 -3 5 0 7 7 5
10 -4 14 2 14 19 0 14 -4 22 -8 20 -4 -3 -8 0 -8 5 0 6 5 11 11 11 6 0 3 7 -5
16 -12 12 -13 20 -6 35 7 12 7 19 1 19 -6 0 -7 7 -4 17 4 10 2 14 -5 9 -6 -3
-14 -1 -18 5 -4 7 -3 9 4 5 7 -4 9 8 7 39 -2 27 0 45 7 45 7 0 7 4 1 13 -15
18 -22 68 -9 60 6 -4 2 4 -9 17 -11 13 -15 20 -8 16 9 -5 12 3 11 28 -1 22 -5
33 -12 29 -6 -3 -5 0 1 7 10 11 9 18 -5 34 -16 19 -16 19 3 12 18 -7 18 -5 -3
17 -12 13 -19 27 -15 31 4 3 8 13 9 22 2 13 0 13 -13 2 -15 -12 -15 -11 -4 10
6 12 9 22 5 22 -3 0 0 8 7 17 8 9 9 14 3 10 -7 -4 -15 0 -18 9 -3 8 -2 12 4 9
6 -3 10 -1 10 4 0 6 -4 11 -10 11 -5 0 -6 7 -3 17 5 12 3 14 -8 8 -11 -6 -12
-5 -1 6 6 7 12 18 12 23 0 6 -5 4 -10 -4 -7 -11 -10 -7 -10 18 0 19 -5 32 -12
32 -9 0 -8 4 2 10 12 8 12 10 1 10 -11 0 -11 3 -1 16 11 12 11 15 -1 12 -8 -2
-13 3 -11 11 2 8 -3 18 -10 22 -11 7 -11 9 0 9 7 0 10 5 7 10 -4 6 -10 8 -14
5 -5 -2 -6 7 -3 21 3 15 -2 32 -14 45 -17 19 -17 20 2 14 19 -7 19 -6 0 9 -11
9 -16 16 -10 16 5 0 2 5 -6 10 -11 7 -11 10 -2 10 7 0 10 5 7 10 -4 6 -11 7
-17 4 -7 -4 -8 -2 -4 4 4 6 2 21 -5 33 -6 12 -7 19 -2 16 5 -4 10 0 10 7 0 8
-7 12 -15 8 -10 -3 -13 -1 -8 6 4 7 1 15 -8 18 -8 3 -12 12 -10 19 3 7 -5 20
-18 29 -15 11 -17 16 -8 16 9 1 6 6 -8 13 -12 7 -19 16 -16 20 4 4 0 7 -9 7
-9 0 -17 7 -17 16 0 8 -4 12 -10 9 -5 -3 -10 1 -10 9 0 9 -5 16 -10 16 -6 0
-16 11 -22 25 -8 19 -14 22 -20 13 -5 -9 -8 -8 -8 5 0 10 -4 15 -10 12 -6 -3
-10 4 -10 16 0 12 -3 19 -7 16 -3 -4 -13 2 -21 14 -8 11 -20 18 -29 15 -8 -3
-11 -1 -8 4 6 9 -9 15 -29 11 -5 -1 -4 5 3 13 10 12 8 14 -13 12 -19 -3 -24 1
-21 16 4 17 2 18 -11 7 -12 -10 -15 -10 -12 2 2 8 -3 13 -10 11 -7 -1 -15 5
-18 13 -3 8 -10 12 -15 9 -5 -3 -9 3 -9 13 0 15 -2 16 -10 3 -8 -13 -10 -12
-10 3 0 10 -4 15 -10 12 -5 -3 -10 -2 -10 4 0 5 -9 13 -20 16 -11 4 -18 11
-15 16 3 5 0 6 -8 4 -16 -7 -60 29 -49 40 4 5 1 5 -5 1 -13 -7 -23 -1 -69 42
-14 13 -31 21 -39 18 -9 -3 -15 1 -15 9 0 8 -9 15 -20 15 -11 0 -20 5 -20 10
0 6 -7 10 -16 10 -9 0 -12 5 -8 12 5 7 0 9 -14 6 -25 -7 -65 19 -55 35 5 8 2
8 -9 -1 -13 -10 -18 -9 -29 5 -13 17 -13 17 6 3 19 -14 19 -14 6 2 -7 10 -17
16 -21 13 -5 -3 -12 0 -15 6 -4 5 -14 8 -22 5 -8 -3 -11 -1 -8 4 3 6 1 10 -5
10 -6 0 -8 5 -4 13 5 7 1 7 -12 -3 -10 -8 -16 -10 -12 -6 8 9 -35 36 -56 36
-7 0 -22 9 -33 20 -12 11 -27 21 -34 22 -19 4 -38 22 -32 30 2 4 -2 5 -10 2
-8 -3 -17 2 -20 10 -4 9 -16 16 -28 16 -11 0 -29 10 -40 23 -17 20 -19 20 -13
2 5 -19 5 -19 -9 -3 -8 10 -17 15 -20 11 -4 -3 -7 2 -7 12 0 13 -3 15 -12 7
-15 -11 -42 10 -30 24 4 4 2 4 -4 1 -6 -4 -22 2 -34 13 -28 24 -31 25 -23 3 3
-12 -3 -9 -18 8 -13 14 -32 25 -42 23 -9 -1 -15 2 -11 7 3 5 0 9 -6 9 -6 0 -8
5 -5 10 3 6 3 10 -2 11 -30 3 -48 9 -51 19 -3 8 -8 8 -17 0 -11 -9 -12 -6 -8
12 4 18 3 20 -6 8 -8 -11 -11 -12 -11 -2 0 7 -5 10 -10 7 -6 -4 -9 -1 -8 7 2
7 -4 13 -12 13 -8 0 -18 5 -22 10 -5 6 -8 4 -8 -5 0 -9 -3 -11 -8 -5 -13 18
-71 46 -89 43 -10 -2 -18 3 -18 10 0 6 -4 12 -9 11 -5 0 -13 6 -18 14 -4 9
-22 22 -38 31 -19 9 -28 10 -23 3 4 -7 -8 0 -26 16 -18 15 -39 27 -46 27 -8 0
-19 8 -25 18 -10 15 -11 15 -6 -3 l6 -20 -15 20 c-9 11 -19 19 -23 18 -4 0 -6
3 -4 9 1 5 -2 7 -8 3 -5 -3 -10 0 -10 7 0 10 -2 10 -8 1 -6 -9 -11 -8 -22 6
-7 11 -20 17 -28 13 -10 -3 -13 -1 -8 6 6 11 0 14 -21 11 -3 0 -10 6 -15 15
-5 9 -18 16 -28 16 -11 0 -20 5 -20 10 0 6 -7 10 -16 10 -9 0 -12 5 -8 13 5 8
2 8 -9 -2 -12 -9 -17 -10 -17 -2 0 7 -4 9 -10 6 -5 -3 -10 0 -10 7 0 7 -13 22
-28 33 -25 18 -26 18 -12 0 14 -17 14 -18 -7 -7 -12 7 -24 17 -26 24 -4 10 -6
10 -6 1 -1 -9 -7 -7 -20 5 -36 32 -50 42 -59 42 -5 0 -15 6 -22 14 -6 8 -19
12 -27 9 -11 -4 -14 -2 -9 6 4 6 4 11 -1 10 -22 -4 -43 2 -38 11 3 6 -3 10
-14 10 -14 0 -19 5 -15 14 4 11 0 13 -17 9 -15 -4 -20 -3 -15 5 4 7 1 12 -8
12 -9 0 -16 5 -16 11 0 5 -4 7 -10 4 -5 -3 -10 -1 -10 5 0 7 -7 9 -16 6 -8 -3
-12 -2 -9 4 3 6 1 11 -4 11 -6 1 -14 2 -18 3 -5 0 -18 11 -31 24 -12 12 -27
20 -32 17 -6 -4 -10 -1 -10 4 0 6 -9 11 -19 11 -10 0 -22 7 -25 16 -3 8 -10
12 -16 9 -5 -3 -10 -2 -10 3 0 6 -11 13 -25 16 -14 4 -25 13 -25 22 0 8 -4 12
-10 9 -5 -3 -10 -1 -10 5 0 6 -4 9 -10 5 -5 -3 -18 3 -30 15 -12 12 -20 15
-20 8 0 -9 -3 -8 -10 2 -5 8 -15 15 -22 15 -7 1 -12 6 -11 13 2 7 -1 12 -6 12
-5 0 -17 7 -25 16 -9 8 -16 11 -16 5 0 -6 -9 -3 -19 6 -11 9 -17 21 -14 26 3
5 -5 4 -17 -3 -15 -8 -20 -8 -16 -1 4 6 0 11 -9 11 -9 0 -13 4 -10 10 3 5 0 7
-8 4 -9 -3 -22 4 -31 18 -9 13 -20 22 -24 22 -4 -1 -6 3 -4 10 2 7 -1 7 -9 -1
-15 -15 -33 -17 -24 -3 3 6 1 10 -6 10 -6 0 -18 8 -26 18 -14 16 -14 16 -8 -3
5 -17 3 -17 -21 5 -15 14 -24 20 -21 14 3 -6 0 -11 -8 -11 -8 0 -12 3 -10 7 2
3 0 12 -6 20 -8 13 -9 13 -9 0 0 -9 -5 -7 -16 8 -10 14 -24 22 -37 20 -14 -2
-25 5 -34 22 -7 14 -13 18 -13 10 0 -10 -5 -7 -16 8 -8 12 -20 19 -26 16 -6
-4 -17 1 -25 11 -8 12 -13 14 -13 5 0 -8 -8 -4 -20 10 -11 13 -20 26 -20 29 0
4 -10 8 -22 8 -13 1 -24 7 -26 13 -2 5 -10 10 -18 10 -10 0 -12 5 -8 13 5 7 0
6 -11 -3 -11 -9 -16 -10 -11 -2 5 8 0 12 -14 12 -12 0 -18 5 -15 10 9 14 -8
12 -24 -2 -11 -10 -13 -10 -7 0 5 8 0 12 -14 12 -12 0 -18 5 -15 10 4 6 -7 10
-25 10 -17 0 -29 4 -26 9 3 5 -1 12 -10 15 -10 4 -13 2 -8 -7 4 -6 -2 -4 -13
6 -11 9 -30 17 -42 17 -14 0 -20 4 -15 11 4 7 1 10 -6 7 -7 -2 -24 6 -36 17
-23 21 -28 23 -79 26 -15 1 -22 6 -18 13 4 6 -2 4 -12 -4 -11 -9 -16 -10 -11
-2 4 6 2 12 -3 12 -6 0 -11 -5 -11 -10 0 -6 -6 -5 -14 2 -8 7 -11 17 -8 22 3
5 -1 6 -8 1 -7 -4 -16 -2 -21 6 -6 9 -9 10 -9 2 0 -8 -9 -9 -30 -3 -17 5 -34
10 -38 11 -51 13 -82 31 -75 43 3 6 0 5 -8 -1 -15 -15 -33 -17 -25 -4 3 5 -1
12 -10 15 -9 4 -13 2 -8 -5 3 -6 -6 -3 -22 7 -15 11 -25 14 -21 7 5 -7 0 -9
-13 -6 -11 3 -20 13 -21 22 0 10 -2 11 -6 4 -3 -10 -10 -10 -25 -2 -11 6 -18
7 -15 2 4 -5 0 -10 -8 -10 -8 0 -12 4 -10 8 3 4 -2 10 -11 13 -23 9 -26 8 -18
-6 6 -10 5 -10 -8 -1 -8 7 -18 10 -21 6 -4 -3 -7 -1 -7 5 0 8 -7 9 -26 1 -22
-8 -25 -7 -16 3 8 11 1 13 -36 12 -26 0 -49 3 -52 7 -3 4 -28 9 -57 11 -28 2
-49 6 -47 9 2 4 -3 9 -11 12 -10 4 -12 1 -8 -10 5 -13 3 -14 -18 -2 -13 7 -30
12 -36 11 -7 -2 -13 3 -13 10 0 9 -3 9 -10 -2 -8 -13 -11 -13 -22 -1 -11 11
-11 13 1 6 9 -5 12 -4 7 3 -5 9 -13 9 -27 2 -10 -6 -19 -7 -19 -2 0 5 -12 7
-26 4 -16 -3 -25 -1 -21 5 3 5 -11 10 -31 11 -20 2 -38 5 -41 7 -2 3 -11 -1
-19 -8 -11 -8 -14 -8 -9 0 4 6 3 14 -3 18 -5 3 -10 1 -10 -6 0 -10 -3 -10 -12
-1 -16 16 -31 15 -22 0 6 -10 4 -10 -7 0 -17 15 -33 16 -23 0 4 -6 -2 -5 -13
3 -25 17 -117 14 -106 -5 4 -6 -1 -5 -10 2 -19 16 -67 23 -67 10 0 -5 -6 -6
-12 -2 -24 15 -49 12 -43 -5 3 -11 0 -10 -10 3 -8 11 -15 15 -15 9 0 -6 -16
-7 -45 -3 -28 4 -45 3 -45 -3 0 -6 -10 -2 -22 9 -12 10 -18 13 -14 7 4 -7 2
-13 -3 -13 -6 0 -11 4 -11 8 0 5 -6 9 -12 9 -23 1 -43 8 -50 18 -5 6 -12 4
-18 -5 -7 -11 -10 -11 -10 -2 0 7 -5 10 -11 7 -23 -15 -59 -12 -59 4 0 11 -3
12 -8 4 -4 -6 -21 -11 -38 -11 -17 1 -36 -2 -42 -6 -6 -3 -13 0 -15 6 -4 10
-8 10 -15 -1 -7 -9 -11 -10 -17 -2 -5 9 -10 9 -20 1 -9 -8 -15 -8 -20 0 -3 6
-12 7 -18 3 -15 -9 -47 -11 -47 -3 0 4 -10 6 -22 4 -13 -1 -23 -3 -23 -4 0 -1
-12 -3 -27 -4 -16 -1 -28 3 -28 9 0 5 -5 3 -10 -5 -8 -12 -10 -12 -10 5 0 15
-2 17 -9 6 -5 -8 -18 -12 -29 -9 -10 3 -27 1 -36 -4 -10 -6 -16 -5 -16 1 0 10
-19 9 -37 -2 -9 -5 -13 -2 -13 8 0 15 -1 15 -16 0 -14 -14 -19 -14 -38 -2 -18
12 -24 12 -46 -2z m4460 -1481 c0 -5 -2 -10 -4 -10 -3 0 -8 5 -11 10 -3 6 -1
10 4 10 6 0 11 -4 11 -10z m-12930 -5180 c0 -5 -2 -10 -4 -10 -3 0 -8 5 -11
10 -3 6 -1 10 4 10 6 0 11 -4 11 -10z m13865 -1085 c6 -1 9 -7 7 -15 -2 -10 4
-8 18 6 19 18 26 20 53 10 18 -6 38 -15 45 -19 7 -5 19 -4 27 3 12 10 15 10
15 -1 0 -11 2 -11 10 1 8 12 10 12 10 1 0 -11 3 -11 15 -1 8 7 15 8 15 3 0 -5
12 -10 27 -11 15 -1 29 -5 32 -10 3 -4 22 -7 41 -7 19 0 41 -4 48 -9 6 -4 12
-5 12 -1 0 5 10 0 22 -11 12 -10 18 -14 15 -7 -4 6 -3 14 3 18 5 3 10 1 10 -5
0 -6 5 -8 10 -5 6 3 10 2 10 -3 0 -6 9 -8 20 -5 11 3 20 0 20 -6 0 -6 5 -11
11 -11 5 0 7 6 3 13 -6 10 -4 10 7 0 7 -7 24 -13 37 -13 16 0 21 -4 16 -12 -5
-9 -2 -9 9 1 14 11 17 11 18 0 0 -10 2 -11 6 -2 3 10 8 9 19 -2 12 -12 20 -12
36 -4 16 9 19 8 13 -2 -6 -9 -3 -11 8 -6 10 4 17 1 17 -5 0 -6 3 -8 7 -5 3 4
13 1 21 -6 11 -8 13 -8 9 0 -5 7 0 9 13 6 11 -3 18 -9 15 -12 -2 -4 2 -8 10
-8 8 0 12 4 9 9 -10 16 9 8 22 -9 10 -14 13 -15 14 -4 0 11 4 10 16 -5 8 -10
13 -13 9 -6 -3 6 -1 12 4 12 6 0 11 -5 11 -12 0 -9 3 -9 12 0 16 16 28 15 28
-3 0 -9 6 -12 17 -8 12 5 14 3 8 -8 -6 -11 -5 -12 6 -1 7 6 18 12 24 12 5 0 3
-5 -5 -11 -12 -9 -11 -10 8 -6 12 3 22 1 22 -4 0 -6 8 -9 18 -7 10 2 16 -2 14
-11 -3 -12 0 -12 12 -1 13 10 16 10 17 -1 0 -10 2 -10 5 -2 3 7 12 9 20 6 7
-3 12 -8 9 -12 -4 -7 29 -11 83 -11 12 0 25 -7 29 -16 5 -13 8 -13 15 -2 7 10
11 10 14 1 3 -7 12 -9 21 -6 9 4 14 2 10 -3 -3 -6 3 -11 14 -11 13 -1 17 2 12
10 -4 7 1 5 12 -3 10 -8 26 -14 37 -12 10 2 18 -3 18 -10 0 -9 3 -9 10 2 7 10
10 11 10 2 0 -8 12 -12 33 -12 40 2 61 -3 78 -16 8 -6 24 -9 37 -8 12 0 22 -3
22 -8 0 -5 10 -9 23 -8 38 3 48 0 41 -11 -4 -7 -1 -10 7 -7 8 3 22 1 33 -4 13
-7 16 -7 12 1 -4 6 -2 11 3 11 6 0 11 -4 11 -9 0 -6 9 -8 20 -6 11 2 20 0 20
-6 0 -14 40 -11 41 4 0 6 4 3 9 -8 5 -11 9 -15 9 -9 1 6 12 9 26 6 14 -2 23
-8 20 -12 -3 -5 -2 -10 2 -13 5 -2 2 -2 -6 0 -7 2 -21 -2 -29 -9 -12 -10 -14
-10 -8 0 4 7 1 12 -9 12 -10 0 -13 -5 -9 -12 5 -7 3 -8 -7 -2 -22 13 -59 16
-59 4 0 -6 -5 -8 -10 -5 -6 4 -8 12 -4 18 3 7 -2 3 -10 -7 -11 -13 -16 -15
-16 -6 0 7 -3 10 -7 7 -3 -4 -12 -2 -20 4 -8 7 -13 8 -13 1 0 -5 -7 -12 -14
-15 -11 -4 -13 -1 -9 10 4 11 3 14 -6 9 -19 -12 -121 -14 -114 -3 4 6 1 7 -7
2 -18 -11 -110 -12 -111 0 0 6 -2 6 -5 -1 -2 -6 -19 -8 -36 -6 -24 4 -29 2
-23 -9 7 -11 6 -12 -6 -3 -20 16 -242 17 -232 1 4 -7 -1 -6 -11 2 -14 12 -22
12 -36 3 -15 -9 -21 -9 -26 0 -5 8 -10 5 -15 -8 -6 -16 -8 -16 -8 -2 -1 17
-27 18 -53 2 -6 -4 -8 -3 -5 3 4 6 -2 13 -14 16 -17 5 -18 3 -7 -11 7 -9 8
-13 2 -9 -7 4 -28 9 -49 13 -29 4 -36 3 -30 -8 3 -7 -1 -4 -9 6 -10 12 -16 15
-16 7 0 -7 -6 -11 -14 -8 -7 3 -19 0 -26 -6 -10 -9 -11 -9 -5 2 6 10 4 13 -7
8 -9 -3 -21 0 -27 6 -9 9 -11 8 -6 -3 4 -11 -1 -16 -15 -16 -14 0 -19 5 -15
16 3 9 -1 8 -10 -4 -9 -12 -15 -15 -15 -7 0 11 -3 11 -17 0 -13 -11 -17 -11
-20 -1 -3 6 -9 12 -14 12 -6 0 -7 -5 -3 -12 4 -7 3 -8 -5 -4 -6 4 -19 2 -27
-5 -12 -9 -13 -9 -9 2 4 10 -1 15 -14 15 -14 0 -17 -4 -11 -11 7 -8 3 -11 -10
-10 -11 1 -23 4 -26 8 -4 3 -15 2 -25 -4 -15 -7 -19 -6 -19 6 0 19 -5 19 -34
0 -21 -14 -24 -14 -30 0 -5 13 -10 14 -27 4 -17 -8 -23 -8 -30 2 -6 10 -10 10
-23 0 -13 -11 -16 -11 -16 0 0 9 -3 10 -8 3 -9 -13 -52 -25 -52 -14 0 4 -7 11
-16 14 -14 5 -15 4 -4 -9 11 -13 10 -14 -4 -9 -9 3 -16 11 -16 18 0 6 -5 4
-10 -4 -6 -10 -10 -11 -10 -2 0 6 -5 12 -11 12 -5 0 -8 -4 -5 -8 3 -5 -1 -9
-9 -9 -8 0 -15 4 -15 9 0 4 -5 8 -11 8 -5 0 -7 -5 -4 -10 8 -12 -17 -9 -26 4
-4 4 -16 3 -28 -3 -15 -8 -27 -9 -40 -1 -23 12 -42 13 -23 1 10 -6 9 -10 -7
-14 -12 -3 -19 -1 -16 3 3 5 -7 8 -22 6 -16 -1 -33 1 -40 6 -7 6 -14 4 -19 -3
-5 -8 -3 -9 6 -4 9 6 11 4 6 -4 -6 -9 -13 -8 -27 5 -11 9 -22 14 -26 11 -3 -4
-1 -7 6 -7 7 0 9 -5 6 -10 -4 -6 -12 -7 -22 -1 -9 4 -25 6 -36 3 -12 -3 -18
-1 -14 5 3 5 -1 10 -9 10 -8 0 -13 -6 -10 -13 3 -8 0 -11 -10 -7 -7 3 -14 9
-14 13 0 15 -141 5 -151 -10 -5 -8 -9 -10 -9 -4 0 6 -7 11 -15 11 -8 0 -15 -5
-15 -11 0 -5 -7 -1 -16 10 -8 10 -13 14 -10 8 3 -7 -3 -14 -14 -17 -11 -3 -19
-2 -18 2 2 20 -4 22 -17 5 -9 -12 -14 -14 -15 -6 0 9 -7 11 -20 7 -12 -4 -20
-2 -20 6 0 8 -4 8 -12 2 -16 -12 -52 -2 -55 15 -2 6 4 12 12 12 8 0 15 6 15
13 0 9 3 8 9 -2 7 -11 10 -9 16 7 3 12 9 21 13 21 21 -3 32 2 26 13 -4 6 -3 8
4 4 6 -3 18 1 27 11 14 14 18 14 26 2 8 -13 13 -6 10 13 0 4 5 5 13 2 8 -3 17
0 21 5 3 6 12 8 18 4 8 -4 7 -1 -1 9 -11 14 -10 16 9 11 15 -4 20 -3 15 5 -4
7 -2 12 4 12 6 0 9 4 6 9 -4 5 3 7 14 4 12 -3 20 0 20 7 0 7 6 10 13 7 13 -5
39 17 30 26 -3 3 5 3 18 0 14 -4 20 -2 16 4 -4 6 0 14 9 17 8 3 13 2 10 -2 -3
-5 1 -9 8 -9 8 0 12 6 9 14 -3 8 2 13 15 13 12 0 24 5 27 10 4 6 11 8 16 5 5
-3 6 1 3 10 -5 13 -1 15 20 11 14 -2 25 -2 25 2 -3 20 2 25 11 12 8 -13 10
-13 10 2 0 11 5 15 15 12 10 -4 15 0 15 11 0 9 4 14 8 11 5 -3 19 4 30 15 12
11 22 15 22 9 0 -5 10 0 23 13 12 12 21 26 19 30 -1 5 3 5 10 0 7 -4 18 -8 23
-8z m-4660 -865 c3 -5 1 -10 -4 -10 -6 0 -11 5 -11 10 0 6 2 10 4 10 3 0 8 -4
11 -10z m2895 6 c0 -3 -4 -8 -10 -11 -5 -3 -10 -1 -10 4 0 6 5 11 10 11 6 0
10 -2 10 -4z"/>
<path d="M4567 12903 c-4 -3 -7 -11 -7 -17 0 -6 5 -5 12 2 6 6 9 14 7 17 -3 3
-9 2 -12 -2z"/>
<path d="M12410 12409 c0 -5 5 -7 10 -4 6 3 10 8 10 11 0 2 -4 4 -10 4 -5 0
-10 -5 -10 -11z"/>
<path d="M1199 11383 c-13 -16 -12 -17 4 -4 16 13 21 21 13 21 -2 0 -10 -8
-17 -17z"/>
<path d="M10 8396 c0 -2 8 -10 18 -17 15 -13 16 -12 3 4 -13 16 -21 21 -21 13z"/>
<path d="M30 7959 c0 -5 5 -7 10 -4 6 3 10 8 10 11 0 2 -4 4 -10 4 -5 0 -10
-5 -10 -11z"/>
<path d="M16489 6033 c-13 -16 -12 -17 4 -4 9 7 17 15 17 17 0 8 -8 3 -21 -13z"/>
<path d="M16730 5409 c0 -5 5 -7 10 -4 6 3 10 8 10 11 0 2 -4 4 -10 4 -5 0
-10 -5 -10 -11z"/>
<path d="M15796 4922 c-3 -5 1 -9 9 -9 8 0 12 4 9 9 -3 4 -7 8 -9 8 -2 0 -6
-4 -9 -8z"/>
<path d="M15955 4920 c-3 -5 -1 -10 4 -10 6 0 11 5 11 10 0 6 -2 10 -4 10 -3
0 -8 -4 -11 -10z"/>
<path d="M13010 4826 c0 -2 7 -7 16 -10 8 -3 12 -2 9 4 -6 10 -25 14 -25 6z"/>
<path d="M6870 4525 c-7 -9 -8 -15 -2 -15 5 0 12 7 16 15 3 8 4 15 2 15 -2 0
-9 -7 -16 -15z"/>
<path d="M16325 4141 c-3 -5 -1 -12 5 -16 5 -3 10 1 10 9 0 18 -6 21 -15 7z"/>
</g>
</svg>
