<?xml version="1.0" encoding="utf-8"?>
<!-- Generator: Adobe Illustrator 27.7.0, SVG Export Plug-In . SVG Version: 6.00 Build 0)  -->
<svg version="1.1" id="Layer_1" xmlns="http://www.w3.org/2000/svg" xmlns:xlink="http://www.w3.org/1999/xlink" x="0px" y="0px"
	 viewBox="0 0 1000 1000" style="enable-background:new 0 0 1000 1000;" xml:space="preserve">
<style type="text/css">
	.st0{fill:#CE4A33;}
</style>
<g>
	<path class="st0" d="M391,612.5c-40.4-0.1-73.2,32.6-73.3,73c-0.1,40.4,32.6,73.3,73,73.4c40.4,0.1,73.2-32.6,73.3-73
		C464.1,645.4,431.4,612.6,391,612.5z M390.8,704.4c-10.4,0-18.8-8.4-18.8-18.7c0-10.4,8.4-18.8,18.8-18.8
		c10.4,0,18.8,8.4,18.8,18.8C409.6,696,401.2,704.4,390.8,704.4z"/>
	<path class="st0" d="M878.8,631.5v32.6h-81.9c19.6-16.6,32-41.4,32-69.1V331.8c0-50.1-40.6-90.6-90.7-90.6H242.9
		c-50.1,0-90.6,40.6-90.6,90.6v163.9c0-10.7-12.2-19.4-27.2-19.4c-15,0-27.2,8.7-27.2,19.4v107.6c0,10.7,12.2,19.4,27.2,19.4
		c15,0,27.2-8.7,27.2-19.4V595c0,50.1,40.6,90.7,90.6,90.7h27.3c0-66.6,54-120.6,120.6-120.6c66.6,0,120.6,54,120.6,120.6h190.8h36
		h140.5h23.4v-21.6v-32.6H878.8z M412.3,449.5H310.4v-98.2h101.9V449.5z M549,450.9v-99.5h157.2v99.5H549z"/>
</g>
</svg>
